<?xml version="1.0" standalone="no"?>
<!DOCTYPE svg PUBLIC "-//W3C//DTD SVG 1.1//EN" "http://www.w3.org/Graphics/SVG/1.1/DTD/svg11.dtd" >
<svg xmlns="http://www.w3.org/2000/svg" xmlns:xlink="http://www.w3.org/1999/xlink" version="1.1">
<metadata>
Created by FontForge 20230101 at Sat Dec  5 14:47:33 2015
 By Paul
</metadata>
<defs>
<font id="boxicons" horiz-adv-x="1024" >
  <font-face 
    font-family="boxicons"
    font-weight="400"
    font-stretch="normal"
    units-per-em="1024"
    panose-1="0 0 0 0 0 0 0 0 0 0"
    ascent="960"
    descent="-64"
    bbox="-1 -73.8478 1317.08 973.261"
    underline-thickness="0"
    underline-position="0"
    unicode-range="U+0001-FFFD"
  />
<missing-glyph 
 />
    <glyph glyph-name=".notdef" unicode="&#xfffd;" 
 />
    <glyph glyph-name="uni0000" horiz-adv-x="0" 
d="M0 0v0v0v0z" />
    <glyph glyph-name="uni0001" horiz-adv-x="0" 
d="M0 0v0v0v0z" />
    <glyph glyph-name="space" unicode=" " horiz-adv-x="512" 
d="M0 0v0v0v0z" />
    <glyph glyph-name="uniE900" unicode="&#xe900;" 
d="M993 512h-174v174q0 23 -14 27t-37 4t-37 -4t-14 -27v-174h-174q-23 0 -27 -14t-4 -37t4 -37t27 -14h174v-174q0 -24 14 -27.5t37 -3.5t37 3.5t14 27.5v174h174q23 0 27 14t4 37t-4 37t-27 14v0zM379 512h-348q-23 0 -27 -14t-4 -37t4 -37t27 -14h348q23 0 27 14t4 37
t-4 37t-27 14v0zM379 256h-348q-23 0 -27 -14t-4 -37t4 -37t27 -14h348q23 0 27 14t4 37t-4 37t-27 14v0zM379 768h-348q-23 0 -27 -14t-4 -37t4 -37t27 -14h348q23 0 27 14t4 37t-4 37t-27 14v0z" />
    <glyph glyph-name="uniE901" unicode="&#xe901;" 
d="M819 973h-614q-42 0 -72.5 -30t-30.5 -73v-768q0 -21 15 -36t37 -15v-102h716v102q22 0 37 15t15 36v768q0 43 -30.5 73t-72.5 30v0zM717 205h-205v51h205v-51v0zM768 410h-512v409h512v-409v0z" />
    <glyph glyph-name="uniE902" unicode="&#xe902;" 
d="M920 739l-369 -254l-7.5 -6.5t-7.5 -17.5t7.5 -18l7.5 -7l369 -253q21 -15 37 -5.5t16 37.5v492q0 28 -16 37t-37 -5v0zM455 739l-369 -254l-7 -6.5t-7 -17.5t7 -18l7 -7l369 -253q22 -15 37.5 -5.5t15.5 37.5v492q0 28 -15.5 37t-37.5 -5v0z" />
    <glyph glyph-name="uniE903" unicode="&#xe903;" 
d="M644 582q0 14 -9 23t-22 9h-202q-13 0 -22 -9t-9 -23v-201h56v-238h152v238h56v201v0zM581 709q0 -28 -20.5 -48t-48.5 -20t-48.5 20t-20.5 48q0 29 20.5 49t48.5 20t48.5 -20t20.5 -49v0zM511 952q-51 0 -98 -9t-90 -26.5t-82.5 -44.5t-74.5 -62q-37 -37 -64 -77.5
t-45 -84t-27.5 -90.5t-9.5 -97q0 -51 9.5 -97.5t27.5 -90t45 -83t64 -76.5q36 -36 75.5 -63t83 -45.5t90 -27.5t96.5 -9q51 0 98.5 9.5t91.5 27.5t84.5 45.5t77.5 64.5q35 34 61.5 73t44 82t26.5 90.5t9 99.5q0 51 -9 99t-27 91.5t-45 83t-62 75.5q-36 35 -75.5 62
t-83.5 44.5t-91.5 26.5t-99.5 9v0zM513 864q83 0 154 -29.5t130 -88.5q59 -58 88.5 -129.5t29.5 -155.5q0 -85 -29 -155.5t-87 -126.5q-61 -60 -132.5 -90t-153.5 -30q-83 0 -154 30t-131 89q-59 60 -89 130.5t-30 152.5t30 153t91 132q57 59 128 88.5t155 29.5v0z" />
    <glyph glyph-name="uniE904" unicode="&#xe904;" 
d="M511 952q-51 0 -98 -8.5t-90 -26.5t-82.5 -45t-74.5 -62q-37 -37 -64 -77.5t-45 -84t-27.5 -90.5t-9.5 -97q0 -51 9.5 -97.5t27.5 -90t45 -83t64 -76.5q36 -36 75.5 -63t83 -45.5t90 -27.5t96.5 -9q51 0 98.5 9.5t91.5 27.5t84.5 45.5t77.5 64.5q35 34 61.5 73t44 82
t26.5 90.5t9 99.5q0 51 -9 99t-27 91.5t-45 83t-62 75.5q-36 35 -75.5 62t-83.5 45t-91.5 26.5t-99.5 8.5v0zM513 864q83 0 154 -29.5t130 -88.5q59 -58 88.5 -129.5t29.5 -155.5q0 -85 -29 -155.5t-87 -126.5q-61 -60 -132.5 -90t-153.5 -30q-83 0 -154 30t-131 89
q-59 60 -89 130.5t-30 152.5t30 153t91 132q57 59 128 88.5t155 29.5v0zM698 577h-358v-84h358v84v0zM698 419h-358v-84h358v84v0z" />
    <glyph glyph-name="uniE905" unicode="&#xe905;" 
d="M861 810q-36 35 -75.5 62t-83.5 45t-91.5 26.5t-99.5 8.5q-51 0 -98 -8.5t-90 -26.5t-82.5 -45t-74.5 -62q-37 -37 -64 -77.5t-45 -84t-27.5 -90.5t-9.5 -97q0 -51 9.5 -97.5t27.5 -90t45 -83t64 -76.5q36 -36 75.5 -63t83 -45.5t90 -27.5t96.5 -9q51 0 98.5 9.5
t91.5 27.5t84.5 45.5t77.5 63.5q35 35 61.5 74t44 82t26.5 90.5t9 99.5q0 51 -9 99t-27 91.5t-45 83t-62 75.5v0zM799 179q-61 -60 -132.5 -90t-153.5 -30q-83 0 -154 30t-131 89q-59 60 -89 130.5t-30 152.5q0 34 5.5 67t16.5 64l130 -58h-9v-59h46q0 -6 -0.5 -12t-0.5 -12
v-14h-45v-59h53q6 -32 17.5 -59t28.5 -48q35 -45 87.5 -69t113.5 -24q39 0 73 9.5t55 21.5l-20 91q-12 -7 -38.5 -14t-54.5 -7q-31 0 -59 10t-47 32q-10 10 -16.5 24.5t-11.5 32.5h179l255 -112q-14 -24 -30.5 -45.5t-37.5 -41.5v0zM480 437l-2 1l2 -1v0v0zM633 475h7v59
h-139l-57 25q4 8 8 15.5t9 12.5q20 24 46 34.5t56 10.5q27 0 51 -6.5t40 -13.5l23 94q-22 10 -54 17.5t-69 7.5q-58 0 -106.5 -22.5t-84.5 -61.5q-7 -9 -14 -19t-13 -21l-162 71q12 18 26 35t30 33q57 59 128 88.5t155 29.5q83 0 154 -29.5t130 -88.5q59 -58 88.5 -129.5
t29.5 -155.5q0 -28 -3 -54t-10 -51l-269 119v0z" />
    <glyph glyph-name="uniE906" unicode="&#xe906;" 
d="M511 952q52 0 99.5 -8.5t91.5 -26.5t83.5 -45t75.5 -62q35 -36 62 -75.5t45 -83t27 -91.5t9 -99q0 -52 -9 -99.5t-26.5 -90.5t-44 -82t-61.5 -73q-37 -37 -77.5 -64.5t-84.5 -45.5t-91.5 -27.5t-98.5 -9.5q-50 0 -96.5 9t-90 27.5t-83 45.5t-75.5 63q-37 37 -64 76.5
t-45 83t-27.5 90t-9.5 97.5q0 50 9.5 97t27.5 90.5t45 84t64 77.5q35 35 74.5 62t82.5 45t90 26.5t98 8.5v0zM131 593q-11 -31 -16.5 -64t-5.5 -68q0 -82 30 -152.5t89 -130.5q60 -59 131 -89t154 -30q82 0 153.5 30t132.5 90q21 20 37.5 41.5t29.5 44.5l-185 83
q-9 -47 -47 -76.5t-88 -33.5v-75h-57v75q-41 1 -79.5 17t-69.5 42l68 69q24 -23 50 -34t60 -11q21 0 40.5 10.5t19.5 38.5q0 10 -3.5 17t-9.5 13l-105 46q-22 10 -40.5 18.5t-37.5 16.5l-251 112v0zM513 864q-84 0 -155 -29.5t-128 -88.5q-16 -16 -29.5 -32.5t-25.5 -33.5
l188 -84q13 39 47 61.5t79 25.5v76h57v-76q29 -1 60.5 -11t62.5 -34l-64 -66q-18 12 -40 20t-44 8q-19 0 -39 -7.5t-20 -30.5q0 -3 1 -6t3 -6l106 -47q20 -9 39.5 -18t39.5 -17l251 -112q7 24 10 50.5t3 54.5q0 84 -29.5 155.5t-88.5 129.5q-59 59 -130 88.5t-154 29.5v0z
" />
    <glyph glyph-name="uniE907" unicode="&#xe907;" 
d="M511 952q-51 0 -98 -8.5t-90 -26.5t-82.5 -45t-74.5 -62q-37 -37 -64 -77.5t-45 -84t-27.5 -90.5t-9.5 -97q0 -51 9.5 -97.5t27.5 -90t45 -83t64 -76.5q36 -36 75.5 -63t83 -45.5t90 -27.5t96.5 -9q51 0 98.5 9.5t91.5 27.5t84.5 45.5t77.5 64.5q35 34 61.5 73t44 82
t26.5 90.5t9 99.5q0 51 -9 99t-27 91.5t-45 83t-62 75.5q-36 35 -75.5 62t-83.5 45t-91.5 26.5t-99.5 8.5v0zM513 864q83 0 154 -29.5t130 -88.5q59 -58 88.5 -129.5t29.5 -155.5q0 -85 -29 -155.5t-87 -126.5q-61 -60 -132.5 -90t-153.5 -30q-83 0 -154 30t-131 89
q-59 60 -89 130.5t-30 152.5t30 153t91 132q57 59 128 88.5t155 29.5v0zM349 549h55q24 0 34 -11t10 -31q0 -16 -9 -28.5t-33 -12.5h-57v83v0zM281 328h69v87h53q70 0 91.5 32.5t21.5 59.5q0 41 -22.5 66.5t-77.5 25.5h-135v-271v0zM535 328h105q62 0 100.5 31.5t38.5 103.5
q0 73 -38.5 104.5t-100.5 31.5h-105v-271v0zM603 542h38q39 0 54.5 -23t15.5 -56q0 -32 -15.5 -55t-53.5 -23h-39v157v0z" />
    <glyph glyph-name="uniE908" unicode="&#xe908;" 
d="M511 952q-51 0 -98 -9t-90 -26.5t-82.5 -44.5t-74.5 -62q-37 -37 -64 -77.5t-45 -84t-27.5 -90.5t-9.5 -97q0 -51 9.5 -97.5t27.5 -90t45 -83t64 -76.5q36 -36 75.5 -63t83 -45.5t90 -27.5t96.5 -9q51 0 98.5 9.5t91.5 27.5t84.5 45.5t77.5 64.5q35 34 61.5 73t44 82
t26.5 90.5t9 99.5q0 51 -9 99t-27 91.5t-45 83t-62 75.5q-36 35 -75.5 62t-83.5 44.5t-91.5 26.5t-99.5 9v0zM513 864q83 0 154 -29.5t130 -88.5q59 -58 88.5 -129.5t29.5 -155.5q0 -85 -29 -155.5t-87 -126.5q-61 -60 -132.5 -90t-153.5 -30q-83 0 -154 30t-131 89
q-59 60 -89 130.5t-30 152.5t30 153t91 132q57 59 128 88.5t155 29.5v0zM833 452l-97 41v122l-301 125l-134 -59v-139l1 -1l-118 -49v-127l127 -54l127 53l8 -4l263 -108l6 2l128 55v139l-10 4v0zM694 291l-1 1v-1l-226 93v89l226 -92v-3h1v-87v0zM709 405l-71 30l76 33
l74 -30l-79 -33v0zM812 330l-88 -38v86l88 37v-85v0z" />
    <glyph glyph-name="uniE909" unicode="&#xe909;" 
d="M511 952q-51 0 -98 -8.5t-90 -26.5t-82.5 -45t-74.5 -62q-37 -37 -64 -77.5t-45 -84t-27.5 -90.5t-9.5 -97q0 -51 9.5 -97.5t27.5 -90t45 -83t64 -76.5q36 -36 75.5 -63t83 -45.5t90 -27.5t96.5 -9q51 0 98.5 9.5t91.5 27.5t84.5 45.5t77.5 64.5q35 34 61.5 73t44 82
t26.5 90.5t9 99.5q0 51 -9 99t-27 91.5t-45 83t-62 75.5q-36 35 -75.5 62t-83.5 45t-91.5 26.5t-99.5 8.5v0zM513 864q83 0 154 -29.5t130 -88.5q59 -58 88.5 -129.5t29.5 -155.5q0 -85 -29 -155.5t-87 -126.5q-61 -60 -132.5 -90t-153.5 -30q-83 0 -154 30t-131 89
q-59 60 -89 130.5t-30 152.5t30 153t91 132q57 59 128 88.5t155 29.5v0zM713 602h-107v107q0 11 -8 19t-19 8h-268h-1.5h-1.5q-10 -1 -17 -9t-7 -18v-362q0 -11 7.5 -19t19.5 -8h107v-107q0 -11 8 -19t19 -8h268q11 0 19 8t8 19v362q0 11 -8 19t-19 8v0zM337 374v308h215
v-80h-107h-1.5h-1.5q-10 -1 -17 -9t-7 -18v-201h-81v0zM686 548v-308h-214v308h214v0z" />
    <glyph glyph-name="uniE90A" unicode="&#xe90a;" 
d="M511 952q-51 0 -98 -9t-90 -26.5t-82.5 -44.5t-74.5 -62q-37 -37 -64 -77.5t-45 -84t-27.5 -90.5t-9.5 -97q0 -51 9.5 -97.5t27.5 -90t45 -83t64 -76.5q36 -36 75.5 -63t83 -45.5t90 -27.5t96.5 -9q51 0 98.5 9.5t91.5 27.5t84.5 45.5t77.5 64.5q35 34 61.5 73t44 82
t26.5 90.5t9 99.5q0 51 -9 99t-27 91.5t-45 83t-62 75.5q-36 35 -75.5 62t-83.5 44.5t-91.5 26.5t-99.5 9v0zM513 864q83 0 154 -29.5t130 -88.5q59 -58 88.5 -129.5t29.5 -155.5q0 -85 -29 -155.5t-87 -126.5q-61 -60 -132.5 -90t-153.5 -30q-83 0 -154 30t-131 89
q-59 60 -89 130.5t-30 152.5t30 153t91 132q57 59 128 88.5t155 29.5v0zM294 530q14 93 73.5 141.5t141.5 48.5q59 0 106 -20t79.5 -56t50 -84.5t17.5 -105.5q0 -55 -18.5 -103t-52 -83.5t-80.5 -56t-104 -20.5q-79 0 -141.5 48.5t-75.5 143.5h124q2 -49 32 -69t76 -20
q52 0 83.5 45t31.5 119q0 78 -29 118.5t-84 40.5q-40 0 -71.5 -18t-38.5 -69h36l-98 -97l-97 97h39v0z" />
    <glyph glyph-name="uniE90B" unicode="&#xe90b;" 
d="M392 377q-16 0 -27.5 6t-19.5 17q-8 12 -12 27t-4 34q0 41 15.5 62t47.5 21q6 0 13 -2t14 -6q7 -5 13.5 -12t11.5 -18l63 33q-19 34 -50.5 51t-74.5 17q-30 0 -55 -10t-44 -29q-20 -20 -29.5 -47t-9.5 -60q0 -35 9.5 -62t28.5 -46q20 -19 45.5 -29t56.5 -10q20 0 38 5
t35 15q16 10 29 23.5t22 30.5l-58 30q-9 -20 -23.5 -30.5t-34.5 -10.5v0zM663 377q-15 0 -27 6t-20 17q-8 12 -12 27t-4 34q0 41 16 62t47 21q7 0 14 -2t15 -6q7 -5 13 -12t11 -18l63 33q-19 34 -50 51t-75 17q-30 0 -54.5 -10t-44.5 -29q-19 -20 -29 -47t-10 -60
q0 -35 9.5 -62t29.5 -46q19 -19 44.5 -29t57.5 -10q19 0 37 5t34 15q17 10 30 23.5t22 30.5l-59 30q-8 -20 -22.5 -30.5t-35.5 -10.5v0zM861 810q-36 35 -75.5 62t-83.5 45t-91.5 26.5t-99.5 8.5q-51 0 -98 -8.5t-90 -26.5t-82.5 -45t-74.5 -62q-37 -37 -64 -77.5t-45 -84
t-27.5 -90.5t-9.5 -97q0 -51 9.5 -97.5t27.5 -90t45 -83t64 -76.5q36 -36 75.5 -63t83 -45.5t90 -27.5t96.5 -9q51 0 98.5 9.5t91.5 27.5t84.5 45.5t77.5 64.5q35 34 61.5 73t44 82t26.5 90.5t9 99.5q0 51 -9 99t-27 91.5t-45 83t-62 75.5v0zM799 179q-61 -60 -132.5 -90
t-153.5 -30q-83 0 -154 30t-131 89q-59 60 -89 130.5t-30 152.5t30 153t91 132q57 59 128 88.5t155 29.5q83 0 154 -29.5t130 -88.5q59 -58 88.5 -129.5t29.5 -155.5q0 -85 -29 -155.5t-87 -126.5v0z" />
    <glyph glyph-name="uniE90C" unicode="&#xe90c;" 
d="M973 819h-922q-21 0 -36 -15t-15 -36v-614q0 -22 15 -37t36 -15h922q21 0 36 15t15 37v614q0 21 -15 36t-36 15v0zM922 205h-820v512h820v-512v0z" />
    <glyph glyph-name="uniE90D" unicode="&#xe90d;" 
d="M819 -7q0 44 -19.5 77t-50.5 59t-70.5 46.5t-80.5 38.5q-82 35 -113 71t-31 100q0 38 18.5 47.5t29.5 79.5q5 29 21 25.5t20 62.5q0 26 -8 35l-8 9l4.5 31t6.5 61q3 31 -20.5 84.5t-97.5 73.5q-12 13 -13.5 32.5t37.5 40.5q-86 4 -121 -31t-81 -68q-39 -29 -52 -68.5
t-12 -63.5q3 -30 7.5 -61l4.5 -31l-8 -9t-8 -35q4 -66 20 -63t21 -25q11 -70 29.5 -79.5t18.5 -47.5q0 -64 -19 -94.5t-101 -65.5q-82 -36 -112.5 -93t-29.5 -139q0 -24 -0.5 -34l-0.5 -10h819v10v34v0zM819 459l-118 123l-54 -55l123 -117l-123 -118l55 -54l117 122
l118 -122l54 54l-123 118l123 117l-54 55l-118 -123v0z" />
    <glyph glyph-name="uniE90E" unicode="&#xe90e;" 
d="M999 52l-456 852q-5 8 -13 13t-18 5t-18 -5t-13 -13l-456 -852q-5 -8 -4.5 -17.5t4.5 -17.5q5 -8 13.5 -12.5t17.5 -4.5h912q9 0 17.5 4.5t13.5 12.5q4 8 4.5 17.5t-4.5 17.5v0zM563 102h-102v103h102v-103v0zM563 282h-102v332h102v-332v0z" />
    <glyph glyph-name="uniE90F" unicode="&#xe90f;" 
d="M128 461h179v358h410v-358h179l-384 -384l-384 384v0z" />
    <glyph glyph-name="uniE910" unicode="&#xe910;" 
d="M512 845v-179h358v-410h-358v-179l-384 384l384 384v0z" />
    <glyph glyph-name="uniE911" unicode="&#xe911;" 
d="M896 461l-384 -384v179h-358v410h358v179l384 -384v0z" />
    <glyph glyph-name="uniE912" unicode="&#xe912;" 
d="M512 845l384 -384h-179v-359h-410v359h-179l384 384v0z" />
    <glyph glyph-name="uniE913" unicode="&#xe913;" 
d="M512 77l-333 333h179v409h308v-409h179l-333 -333v0z" />
    <glyph glyph-name="uniE914" unicode="&#xe914;" 
d="M128 461l333 333v-180h409v-307h-409v-179l-333 333v0z" />
    <glyph glyph-name="uniE915" unicode="&#xe915;" 
d="M512 -13l-282 269h180v666h204v-666h180l-282 -269v0z" />
    <glyph glyph-name="uniE916" unicode="&#xe916;" 
d="M38 461l269 281v-179h666v-205h-666v-179l-269 282v0z" />
    <glyph glyph-name="uniE917" unicode="&#xe917;" 
d="M717 179v179h-666v205h666v179l269 -281l-269 -282v0z" />
    <glyph glyph-name="uniE918" unicode="&#xe918;" 
d="M512 934l282 -268h-180v-666h-204v666h-180l282 268v0z" />
    <glyph glyph-name="uniE919" unicode="&#xe919;" 
d="M563 128v179h-409v307h409v180l333 -333l-333 -333v0z" />
    <glyph glyph-name="uniE91A" unicode="&#xe91a;" 
d="M512 845l333 -333h-179v-410h-308v410h-179l333 333v0z" />
    <glyph glyph-name="uniE91B" unicode="&#xe91b;" 
d="M512 952q-102 0 -191.5 -38.5t-156 -105t-105.5 -156t-39 -191.5t39 -191.5t105.5 -156.5t156 -105.5t191.5 -38.5t191.5 38.5t156 105.5t105.5 156.5t39 191.5t-39 191.5t-105.5 156t-156 105t-191.5 38.5v0zM512 72q-81 0 -151.5 30.5t-123.5 83t-83.5 123.5t-30.5 152
q0 80 30.5 151t83.5 124t123.5 83.5t151.5 30.5t151.5 -30.5t123.5 -83.5t83.5 -124t30.5 -151q0 -81 -30.5 -152t-83.5 -123.5t-123.5 -83t-151.5 -30.5v0zM614 666h-204v-205h-128l230 -231l230 231h-128v205v0z" />
    <glyph glyph-name="uniE91C" unicode="&#xe91c;" 
d="M512 952q-102 0 -191.5 -38.5t-156 -105t-105.5 -156t-39 -191.5t39 -191.5t105.5 -156.5t156 -105.5t191.5 -38.5t191.5 38.5t156 105.5t105.5 156.5t39 191.5t-39 191.5t-105.5 156t-156 105t-191.5 38.5v0zM512 72q-81 0 -151.5 30.5t-123.5 83t-83.5 123.5t-30.5 152
q0 80 30.5 151t83.5 124t123.5 83.5t151.5 30.5t151.5 -30.5t123.5 -83.5t83.5 -124t30.5 -151q0 -81 -30.5 -152t-83.5 -123.5t-123.5 -83t-151.5 -30.5v0zM512 691l-230 -230l230 -231v128h205v205h-205v128v0z" />
    <glyph glyph-name="uniE91D" unicode="&#xe91d;" 
d="M512 952q-102 0 -191.5 -38.5t-156 -105t-105.5 -156t-39 -191.5t39 -191.5t105.5 -156.5t156 -105.5t191.5 -38.5t191.5 38.5t156 105.5t105.5 156.5t39 191.5t-39 191.5t-105.5 156t-156 105t-191.5 38.5v0zM512 72q-81 0 -151.5 30.5t-123.5 83t-83.5 123.5t-30.5 152
q0 80 30.5 151t83.5 124t123.5 83.5t151.5 30.5t151.5 -30.5t123.5 -83.5t83.5 -124t30.5 -151q0 -81 -30.5 -152t-83.5 -123.5t-123.5 -83t-151.5 -30.5v0zM512 563h-205v-205h205v-128l230 231l-230 230v-128v0z" />
    <glyph glyph-name="uniE91E" unicode="&#xe91e;" 
d="M512 952q-102 0 -191.5 -38.5t-156 -105t-105.5 -156t-39 -191.5t39 -191.5t105.5 -156.5t156 -105.5t191.5 -38.5t191.5 38.5t156 105.5t105.5 156.5t39 191.5t-39 191.5t-105.5 156t-156 105t-191.5 38.5v0zM512 72q-81 0 -151.5 30.5t-123.5 83t-83.5 123.5t-30.5 152
q0 80 30.5 151t83.5 124t123.5 83.5t151.5 30.5t151.5 -30.5t123.5 -83.5t83.5 -124t30.5 -151q0 -81 -30.5 -152t-83.5 -123.5t-123.5 -83t-151.5 -30.5v0zM512 691l230 -230h-128v-205h-204v205h-128l230 230v0z" />
    <glyph glyph-name="uniE91F" unicode="&#xe91f;" 
d="M717 870v-870l-205 205l-205 -205v870q0 22 17.5 37t33.5 15h308q26 0 38.5 -15t12.5 -37v0z" />
    <glyph glyph-name="uniE920" unicode="&#xe920;" 
d="M768 973h-205q-21 0 -36 -15t-15 -36l1 -12q42 0 72.5 -30t30.5 -72v-582l50 61l153 -185v820q0 21 -15 36t-36 15v0zM462 819h-206q-21 0 -36 -15t-15 -36v-819l153 184l154 -184v819q0 21 -14.5 36t-35.5 15v0z" />
    <glyph glyph-name="uniE921" unicode="&#xe921;" 
d="M231 586q17 17 38.5 18t42.5 -18l200 -192l200 192q21 19 42.5 18t38.5 -18q16 -17 15.5 -41.5t-15.5 -40.5q-8 -8 -46.5 -45t-81.5 -78.5t-78 -74.5l-35 -33q-8 -8 -18.5 -12.5t-21.5 -4.5t-21.5 4.5t-18.5 12.5l-35 33t-78 74.5t-81.5 78.5t-46.5 45q-15 16 -16 40.5
t16 41.5v0z" />
    <glyph glyph-name="uniE922" unicode="&#xe922;" 
d="M638 742q17 -17 17.5 -39t-17.5 -42l-192 -200l192 -200q18 -21 17.5 -42.5t-17.5 -38.5q-18 -17 -42.5 -16.5t-40.5 16.5q-8 8 -45 46.5t-78.5 81.5t-74.5 78l-33 35q-8 8 -12.5 18.5t-4.5 21.5t4.5 21.5t12.5 18.5l33 34.5t74.5 78t78.5 82t45 46.5q16 15 40.5 15.5
t42.5 -15.5v0z" />
    <glyph glyph-name="uniE923" unicode="&#xe923;" 
d="M469 742q8 -8 45 -46.5t78.5 -82t74.5 -78l33 -34.5q8 -8 12.5 -18.5t4.5 -21.5t-4.5 -21.5t-12.5 -18.5l-33 -35t-74.5 -78t-78.5 -81.5t-45 -46.5q-16 -16 -40.5 -16.5t-42.5 16.5q-17 17 -17.5 38.5t17.5 42.5l192 200l-192 200q-18 20 -17.5 42t17.5 39
q18 16 42.5 15.5t40.5 -15.5v0z" />
    <glyph glyph-name="uniE924" unicode="&#xe924;" 
d="M687 570q10 11 25 11t25 -11q10 -10 10.5 -24.5t-10.5 -24.5l-200 -196q-10 -11 -25 -11t-25 11l-200 196q-11 10 -11 24.5t11 24.5q10 11 25 11t25 -11l175 -160l175 160v0z" />
    <glyph glyph-name="uniE925" unicode="&#xe925;" 
d="M622 286q10 -11 10 -25.5t-10 -24.5q-11 -11 -25.5 -11t-24.5 11l-196 200q-10 10 -10 24.5t10 25.5l196 200q10 10 24.5 10t25.5 -10q10 -10 10 -25t-10 -25l-161 -175l161 -175v0z" />
    <glyph glyph-name="uniE926" unicode="&#xe926;" 
d="M563 461l-161 175q-10 10 -10 25t10 25q11 10 25.5 10t24.5 -10l196 -200q10 -11 10 -25.5t-10 -24.5l-196 -200q-10 -11 -24.5 -11t-25.5 11q-10 10 -10 24.5t10 25.5l161 175v0z" />
    <glyph glyph-name="uniE927" unicode="&#xe927;" 
d="M337 351q-10 -10 -25 -10t-25 10t-10.5 25t10.5 25l200 196q10 10 25 10t25 -10l200 -196q11 -10 11 -25t-11 -25q-10 -10 -25 -10t-25 10l-175 161l-175 -161v0z" />
    <glyph glyph-name="uniE928" unicode="&#xe928;" 
d="M892 660q10 10 25 10t25 -10t10 -24.5t-10 -25.5l-405 -400q-10 -11 -25 -11t-25 11l-405 400q-10 11 -10 25.5t10 24.5t25 10t25 -10l380 -366l380 366v0z" />
    <glyph glyph-name="uniE929" unicode="&#xe929;" 
d="M711 81q11 -10 11 -25t-11 -25q-10 -10 -24.5 -10.5t-24.5 10.5l-401 405q-11 10 -11 24.5t11 25.5l401 405q10 10 24.5 10t24.5 -10q11 -11 11 -25.5t-11 -24.5l-365 -380l365 -380v0z" />
    <glyph glyph-name="uniE92A" unicode="&#xe92a;" 
d="M678 461l-365 380q-11 10 -11 24.5t11 25.5q10 10 24.5 10t24.5 -10l401 -405q11 -10 11 -25t-11 -25l-401 -405q-10 -10 -24.5 -10t-24.5 10q-11 10 -11 25t11 25l365 380v0z" />
    <glyph glyph-name="uniE92B" unicode="&#xe92b;" 
d="M132 262q-10 -11 -25 -11t-25 11q-10 10 -10 24.5t10 24.5l405 401q10 10 25 10t25 -10l405 -401q10 -10 10 -24.5t-10 -24.5q-10 -11 -25 -11t-25 11l-380 365l-380 -365v0z" />
    <glyph glyph-name="uniE92C" unicode="&#xe92c;" 
d="M793 335q-17 -17 -38.5 -17.5t-42.5 17.5l-200 192l-200 -192q-21 -18 -42.5 -17.5t-38.5 17.5q-16 17 -15.5 42t15.5 41q8 8 46.5 45t81.5 78t78 74l35 33q8 9 18.5 13.5t21.5 4.5t21.5 -4.5t18.5 -13.5l35 -33t78 -74t81.5 -78t46.5 -45q15 -16 16 -41t-16 -42v0z" />
    <glyph glyph-name="uniE92D" unicode="&#xe92d;" 
d="M640 527l-128 -117l-128 117q-8 8 -18.5 8t-18.5 -8q-8 -7 -8 -17.5t8 -18.5l147 -144q7 -7 18 -7t18 7l147 144q8 8 8 18.5t-8 17.5q-8 8 -18.5 8t-18.5 -8v0zM512 952q-102 0 -191.5 -38.5t-156 -105t-105.5 -156t-39 -191.5t39 -191.5t105.5 -156t156 -105.5
t191.5 -39t191.5 39t156 105.5t105.5 156t39 191.5t-39 191.5t-105.5 156t-156 105t-191.5 38.5v0zM512 33q-89 0 -166.5 33.5t-136 91.5t-92 136t-33.5 167q0 88 33.5 166t92 136t136 92t166.5 34t166.5 -34t135.5 -92t92 -136t34 -166q0 -89 -34 -167t-92 -136
t-135.5 -91.5t-166.5 -33.5v0z" />
    <glyph glyph-name="uniE92E" unicode="&#xe92e;" 
d="M579 626q-8 7 -18.5 7t-18.5 -7l-143 -147q-8 -7 -8 -18t8 -19l143 -146q8 -8 18.5 -8t18.5 8q7 7 7 18t-7 19l-118 128l118 128q7 8 7 18.5t-7 18.5v0zM512 952q-102 0 -191.5 -38.5t-156 -105t-105.5 -156t-39 -191.5t39 -191.5t105.5 -156t156 -105.5t191.5 -39
t191.5 39t156 105.5t105.5 156t39 191.5t-39 191.5t-105.5 156t-156 105t-191.5 38.5v0zM512 33q-89 0 -166.5 33.5t-136 91.5t-92 136t-33.5 167q0 88 33.5 166t92 136t136 92t166.5 34t166.5 -34t135.5 -92t92 -136t34 -166q0 -89 -34 -167t-92 -136t-135.5 -91.5
t-166.5 -33.5v0z" />
    <glyph glyph-name="uniE92F" unicode="&#xe92f;" 
d="M563 461l-118 128q-7 8 -7 18.5t7 18.5q8 7 18.5 7t18.5 -7l143 -147q8 -7 8 -18t-8 -18l-143 -147q-8 -8 -18.5 -8t-18.5 8q-7 7 -7 18t7 19l118 128v0zM512 952q102 0 191.5 -38.5t156 -105t105.5 -156t39 -191.5t-39 -191.5t-105.5 -156t-156 -105.5t-191.5 -39
t-191.5 39t-156 105.5t-105.5 156t-39 191.5t39 191.5t105.5 156t156 105t191.5 38.5v0zM512 33q89 0 166.5 33.5t135.5 91.5t92 136t34 167q0 88 -34 166t-92 136t-135.5 92t-166.5 34t-166.5 -34t-136 -92t-92 -136t-33.5 -166q0 -89 33.5 -167t92 -136t136 -91.5
t166.5 -33.5v0z" />
    <glyph glyph-name="uniE930" unicode="&#xe930;" 
d="M530 574q-7 8 -18 8t-18 -8l-147 -144q-8 -7 -8 -17.5t8 -18.5q8 -7 18.5 -7t18.5 7l128 118l128 -118q8 -7 18.5 -7t18.5 7q8 8 8 18.5t-8 17.5l-147 144v0zM512 952q-102 0 -191.5 -38.5t-156 -105t-105.5 -156t-39 -191.5t39 -191.5t105.5 -156t156 -105.5t191.5 -39
t191.5 39t156 105.5t105.5 156t39 191.5t-39 191.5t-105.5 156t-156 105t-191.5 38.5v0zM512 33q-89 0 -166.5 33.5t-136 91.5t-92 136t-33.5 167q0 88 33.5 166t92 136t136 92t166.5 34t166.5 -34t135.5 -92t92 -136t34 -166q0 -89 -34 -167t-92 -136t-135.5 -91.5
t-166.5 -33.5v0z" />
    <glyph glyph-name="uniE931" unicode="&#xe931;" 
d="M1024 393q0 -49 -19.5 -93t-52.5 -76.5t-77.5 -51t-95.5 -18.5h-594q-77 0 -131 53t-54 128t54 128t131 53q6 0 11.5 -0.5t10.5 -1.5q-1 10 -2 19.5t-1 19.5q0 55 21.5 103.5t58.5 84.5t86.5 57t106.5 21q46 0 87.5 -14t76 -39.5t59.5 -60t38 -76.5q10 2 20 3t21 1
q51 0 95.5 -19t77.5 -51.5t52.5 -76t19.5 -93.5v0z" />
    <glyph glyph-name="uniE932" unicode="&#xe932;" 
d="M473 485l-369 254q-21 14 -37 5t-16 -37v-492q0 -28 16 -37.5t37 5.5l369 253l7.5 7t7.5 18t-7.5 17.5l-7.5 6.5v0zM952 461q0 -11 -7 -18l-7 -7l-369 -253q-22 -15 -37.5 -5.5t-15.5 37.5v492q0 28 15.5 37t37.5 -5l369 -254l7 -6.5t7 -17.5v0z" />
    <glyph glyph-name="uniE933" unicode="&#xe933;" 
d="M766 739l-369 -254l-7 -6.5t-7 -17.5t7 -18l7 -7l369 -253q22 -15 37.5 -5.5t15.5 37.5v492q0 28 -15.5 37t-37.5 -5v0zM307 768h-51q-21 0 -36 -5t-15 -26v-553q0 -21 15 -25.5t36 -4.5h51q21 0 36 4.5t15 25.5v553q0 21 -15 26t-36 5v0z" />
    <glyph glyph-name="uniE934" unicode="&#xe934;" 
d="M627 485l-369 254q-22 14 -37.5 5t-15.5 -37v-492q0 -28 15.5 -37.5t37.5 5.5l369 253l7 7t7 18t-7 17.5l-7 6.5v0zM717 768h51q21 0 36 -5t15 -26v-553q0 -21 -15 -25.5t-36 -4.5h-51q-21 0 -36 4.5t-15 25.5v553q0 21 15 26t36 5v0z" />
    <glyph glyph-name="uniE935" unicode="&#xe935;" 
d="M768 819h-102q-22 0 -37 -4.5t-15 -26.5v-655q0 -21 15 -26t37 -5h102q21 0 36 5t15 26v655q0 22 -15 26.5t-36 4.5v0zM358 819h-102q-21 0 -36 -4.5t-15 -26.5v-655q0 -21 15 -26t36 -5h102q22 0 37 5t15 26v655q0 22 -15 26.5t-37 4.5v0z" />
    <glyph glyph-name="uniE936" unicode="&#xe936;" 
d="M768 461q0 -12 -8 -19.5l-8 -7.5l-438 -271q-24 -16 -41 -6t-17 40v527q0 30 17 40t41 -5l438 -272l8 -7.5t8 -18.5v0z" />
    <glyph glyph-name="uniE937" unicode="&#xe937;" 
d="M512 819q-74 0 -139.5 -28t-114 -76.5t-76.5 -114t-28 -139.5t28 -139.5t76.5 -114t114 -77t139.5 -28.5t139.5 28.5t114 77t76.5 114t28 139.5t-28 139.5t-76.5 114t-114 76.5t-139.5 28v0z" />
    <glyph glyph-name="uniE938" unicode="&#xe938;" 
d="M819 717v-502q0 -25 -18 -43t-43 -18h-502q-21 0 -36 14.5t-15 36.5v502q0 25 18 43t43 18h502q21 0 36 -15t15 -36v0z" />
    <glyph glyph-name="uniE939" unicode="&#xe939;" 
d="M973 266q0 -25 -18 -43t-43 -18h-834q-33 0 -36.5 12.5t25.5 29.5l836 464q28 17 49 5.5t21 -45.5v-405v0z" />
    <glyph glyph-name="uniE93A" unicode="&#xe93a;" 
d="M399 461q0 -47 33 -80t80 -33t80 33t33 80q0 46 -33 79t-80 33t-80 -33t-33 -79v0z" />
    <glyph glyph-name="uniE93B" unicode="&#xe93b;" 
d="M512 573q-47 0 -80 -33t-33 -79q0 -47 33 -80t80 -33t80 33t33 80q0 46 -33 79t-80 33v0zM154 573q-47 0 -80 -33t-33 -79q0 -47 33 -80t80 -33q46 0 79 33t33 80q0 46 -33 79t-79 33v0zM870 573q-46 0 -79 -33t-33 -79q0 -47 33 -80t79 -33q47 0 80 33t33 80
q0 46 -33 79t-80 33v0z" />
    <glyph glyph-name="uniE93C" unicode="&#xe93c;" 
d="M512 573q-47 0 -80 -33t-33 -79q0 -47 33 -80t80 -33t80 33t33 80q0 46 -33 79t-80 33v0zM512 707q47 0 80 33t33 79q0 47 -33 80t-80 33t-80 -33t-33 -80q0 -46 33 -79t80 -33v0zM512 215q-47 0 -80 -33t-33 -80q0 -46 33 -79t80 -33t80 33t33 79q0 47 -33 80t-80 33v0z
" />
    <glyph glyph-name="uniE93D" unicode="&#xe93d;" 
d="M717 573q-47 0 -80 -33t-33 -79q0 -47 33 -80t80 -33t79.5 33t32.5 80q0 46 -32.5 79t-79.5 33v0zM307 573q-46 0 -79 -33t-33 -79q0 -47 33 -80t79 -33q47 0 80 33t33 80q0 46 -33 79t-80 33v0z" />
    <glyph glyph-name="uniE93E" unicode="&#xe93e;" 
d="M512 553q47 0 80 33t33 80q0 46 -33 79t-80 33t-80 -33t-33 -79q0 -47 33 -80t80 -33v0zM512 369q-47 0 -80 -33t-33 -80t33 -80t80 -33t80 33t33 80t-33 80t-80 33v0z" />
    <glyph glyph-name="uniE93F" unicode="&#xe93f;" 
d="M768 614h-154v308h-204v-308h-154l256 -256l256 256v0zM990 280q-8 9 -47.5 51t-55.5 57q-10 10 -24 16t-29 6h-90l157 -154h-182q-4 0 -7 -1.5t-5 -5.5l-42 -95h-306l-42 95q-2 4 -5 5.5t-7 1.5h-182l157 154h-90q-15 0 -29 -6t-24 -16q-15 -15 -55 -57t-48 -51
q-19 -20 -28 -37.5t-4 -36.5l28 -158q5 -19 24 -33.5t40 -14.5h836q21 0 40 14.5t24 33.5l28 158q5 19 -4 36.5t-28 37.5v0z" />
    <glyph glyph-name="uniE940" unicode="&#xe940;" 
d="M384 474q32 0 54.5 26t22.5 63t-22.5 63.5t-54.5 26.5t-54.5 -26.5t-22.5 -63.5t22.5 -63t54.5 -26v0zM512 952q-102 0 -191.5 -38.5t-156 -105t-105.5 -156t-39 -191.5t39 -191.5t105.5 -156t156 -105.5t191.5 -39t191.5 39t156 105.5t105.5 156t39 191.5t-39 191.5
t-105.5 156t-156 105t-191.5 38.5v0zM512 72q-81 0 -151.5 30.5t-123.5 83t-83.5 123.5t-30.5 152q0 80 30.5 151t83.5 124t123.5 83.5t151.5 30.5t151.5 -30.5t123.5 -83.5t83.5 -124t30.5 -151q0 -81 -30.5 -152t-83.5 -123.5t-123.5 -83t-151.5 -30.5v0zM734 392
q-14 8 -29 3t-22 -19q-2 -2 -39 -42t-132 -40q-94 0 -131.5 39.5t-39.5 42.5q-7 14 -22 19t-29 -2t-19 -22.5t2 -29.5q2 -4 55 -63.5t184 -59.5q132 0 184.5 59.5t54.5 63.5q7 14 2 29t-19 22v0zM576 525h128q16 0 27 11t11 27t-11 27.5t-27 11.5h-128q-16 0 -27 -11.5
t-11 -27.5t11 -27t27 -11v0z" />
    <glyph glyph-name="uniE941" unicode="&#xe941;" 
d="M840 768q0 51 -36 87t-87 36t-87 -36t-36 -87q0 -37 19.5 -66.5t51.5 -44.5q-3 -61 -47.5 -90t-123.5 -58q-33 -13 -68.5 -27.5t-67.5 -35.5v211q32 14 52 44t20 67q0 51 -36 87t-87 36t-87 -36t-36 -87q0 -37 20 -67t52 -44v-392q-32 -15 -52 -44.5t-20 -66.5
q0 -51 36 -87t87 -36t87 36t36 87q0 37 -19.5 66.5t-51.5 44.5q3 60 47.5 89t123.5 59q39 14 80.5 32t75.5 45.5t57 67.5t25 98q31 15 51.5 45t20.5 67v0zM307 839q30 0 50.5 -21t20.5 -50t-20.5 -50t-50.5 -21q-29 0 -50 21t-21 50t21 50t50 21v0zM307 83q-29 0 -50 20.5
t-21 50.5q0 29 21 50t50 21q30 0 50.5 -21t20.5 -50q0 -30 -20.5 -50.5t-50.5 -20.5v0zM717 697q-30 0 -50.5 21t-20.5 50t20.5 50t50.5 21q29 0 50 -21t21 -50t-21 -50t-50 -21v0z" />
    <glyph glyph-name="uniE942" unicode="&#xe942;" 
d="M717 225q-37 0 -67 -20t-45 -51h-170q-32 0 -54.5 22.5t-22.5 53.5v198q18 -9 37.5 -13.5t39.5 -4.5h170q15 -32 45 -52t67 -20q51 0 87 36t36 87t-36 87t-87 36q-37 0 -67 -20t-45 -52h-170q-32 0 -54.5 22.5t-22.5 54.5v119q32 14 52 44t20 67q0 51 -36 87t-87 36
t-87 -36t-36 -87q0 -37 20 -67t52 -44v-478q0 -74 52.5 -126.5t126.5 -52.5h170q15 -31 45 -51t67 -20q51 0 87 36t36 86q0 51 -36 87t-87 36v0zM717 532q29 0 50 -21t21 -50q0 -30 -21 -50.5t-50 -20.5q-30 0 -50.5 20.5t-20.5 50.5q0 29 20.5 50t50.5 21v0zM307 890
q30 0 50.5 -20.5t20.5 -50.5q0 -29 -20.5 -50t-50.5 -21q-29 0 -50 21t-21 50q0 30 21 50.5t50 20.5v0zM717 31q-30 0 -50.5 21t-20.5 50q0 30 20.5 50.5t50.5 20.5q29 0 50 -20.5t21 -50.5q0 -29 -21 -50t-50 -21v0z" />
    <glyph glyph-name="uniE943" unicode="&#xe943;" 
d="M563 265v392q32 14 52 44t20 67q0 51 -36 87t-87 36t-87 -36t-36 -87q0 -37 20 -67t52 -44v-392q-32 -15 -52 -44.5t-20 -66.5q0 -51 36 -87t87 -36t87 36t36 87q0 37 -20 66.5t-52 44.5v0zM512 839q29 0 50 -21t21 -50t-21 -50t-50 -21t-50 21t-21 50t21 50t50 21v0z
M512 83q-29 0 -50 20.5t-21 50.5q0 29 21 50t50 21t50 -21t21 -50q0 -30 -21 -50.5t-50 -20.5v0z" />
    <glyph glyph-name="uniE944" unicode="&#xe944;" 
d="M430 768q0 51 -36 87t-87 36t-87 -36t-36 -87q0 -37 20 -67t52 -44v-392q-32 -15 -52 -44.5t-20 -66.5q0 -51 36 -87t87 -36t87 36t36 87q0 37 -20 66.5t-52 44.5v392q32 14 52 44t20 67v0zM378 154q0 -30 -20.5 -50.5t-50.5 -20.5q-29 0 -50 20.5t-21 50.5q0 29 21 50
t50 21q30 0 50.5 -21t20.5 -50v0zM307 697q-29 0 -50 21t-21 50t21 50t50 21q30 0 50.5 -21t20.5 -50t-20.5 -50t-50.5 -21v0zM768 265v392q32 14 52 44t20 67q0 51 -36 87t-87 36t-87 -36t-36 -87q0 -37 20 -67t52 -44v-392q-32 -15 -52 -44.5t-20 -66.5q0 -51 36 -87
t87 -36t87 36t36 87q0 37 -20 66.5t-52 44.5v0zM646 768q0 29 20.5 50t50.5 21q29 0 50 -21t21 -50t-21 -50t-50 -21q-30 0 -50.5 21t-20.5 50v0zM717 83q-30 0 -50.5 20.5t-20.5 50.5q0 29 20.5 50t50.5 21q29 0 50 -21t21 -50q0 -30 -21 -50.5t-50 -20.5v0z" />
    <glyph glyph-name="uniE945" unicode="&#xe945;" 
d="M922 214v119q0 74 -52.5 126.5t-127.5 52.5h-102q-32 0 -54.5 22.5t-22.5 54.5v119q32 14 52 44t20 67q0 51 -36 87t-87 36t-87 -36t-36 -87q0 -37 20 -67t52 -44v-119q0 -32 -22.5 -54.5t-54.5 -22.5h-102q-75 0 -127.5 -52.5t-52.5 -126.5v-119q-31 -15 -51 -44.5
t-20 -67.5q0 -51 36 -86.5t87 -35.5t86.5 36t35.5 86q0 38 -20 67.5t-51 44.5v119q0 32 22.5 54.5t54.5 22.5h102q21 0 40 4.5t37 13.5v-214q-32 -15 -52 -44.5t-20 -67.5q0 -51 36 -86.5t87 -35.5t87 36t36 86q0 38 -20 67.5t-52 44.5v214q18 -9 37 -13.5t40 -4.5h102
q32 0 54.5 -22.5t22.5 -54.5v-119q-31 -15 -51 -44.5t-20 -67.5q0 -51 35.5 -86.5t86.5 -35.5t87 36t36 86q0 38 -20 67.5t-51 44.5v0zM512 890q29 0 50 -20.5t21 -50.5q0 -29 -21 -50t-50 -21t-50 21t-21 50q0 30 21 50.5t50 20.5v0zM154 31q-30 0 -50.5 21t-20.5 50
q0 30 20.5 50.5t50.5 20.5q29 0 49.5 -20.5t20.5 -50.5q0 -29 -20.5 -50t-49.5 -21v0zM512 31q-29 0 -50 21t-21 50q0 30 21 50.5t50 20.5t50 -20.5t21 -50.5q0 -29 -21 -50t-50 -21v0zM870 31q-29 0 -50 21t-21 50q0 30 21 50.5t50 20.5q30 0 50.5 -20.5t20.5 -50.5
q0 -29 -20.5 -50t-50.5 -21v0z" />
    <glyph glyph-name="uniE946" unicode="&#xe946;" 
d="M976 415l-163 406q-9 22 -29 35.5t-44 13.5h-125l20 -208h138l-261 -216l-261 216h138l20 208h-125q-24 0 -44 -13.5t-29 -35.5l-163 -406q-11 -28 -14 -57.5t2 -59.5l30 -181q5 -28 27 -47t51 -19h736q29 0 51 19t27 47l30 181q5 30 2 59.5t-14 57.5v0zM868 192
q-2 -16 -15 -27t-30 -11h-622q-17 0 -30 11t-15 27l-19 113q-4 21 10 37t36 16h658q22 0 36 -16t10 -37l-19 -113v0z" />
    <glyph glyph-name="uniE947" unicode="&#xe947;" 
d="M473 379q18 -12 39 -12t38 12l466 270q9 7 8 17.5t-11 15.5l-471 181q-14 7 -30 7t-30 -7l-471 -181q-10 -5 -11 -15.5t8 -17.5l465 -270v0zM1013 419l-127 63l-293 -170q-18 -12 -38.5 -18t-42.5 -6t-42.5 6t-38.5 18l-293 171l-127 -64q-10 -5 -11 -15.5t8 -17.5
l465 -323q18 -12 39 -12t38 12l466 323q9 7 8 17.5t-11 15.5v0z" />
    <glyph glyph-name="uniE948" unicode="&#xe948;" 
d="M542 707l23 -70q14 12 32.5 22.5t41.5 17.5q23 8 43 12t38 7l-22 68q-18 -3 -38.5 -7.5t-42.5 -11.5q-22 -8 -40.5 -17.5t-34.5 -20.5v0zM590 561l23 -71q14 13 32 23.5t42 17.5q22 7 42 11.5t39 7.5l-22 67q-19 -2 -39 -6.5t-42 -11.5q-23 -8 -41.5 -17.5t-33.5 -20.5v0
zM637 414l23 -70q14 12 32.5 22.5t41.5 18.5q23 7 43 11.5t38 7.5l-22 67q-18 -2 -38.5 -6.5t-42.5 -12.5q-22 -7 -40.5 -16.5t-34.5 -21.5v0zM276 303l22 -67q16 8 35 16.5t41 15.5q24 8 44.5 10t39.5 0l-23 71q-19 0 -39.5 -3t-43.5 -10q-22 -8 -41 -16t-35 -17v0z
M181 596l22 -68q16 8 35 16.5t41 15.5q24 8 44.5 10t39.5 1l-23 70q-19 0 -39.5 -3t-43.5 -10q-22 -7 -41 -15.5t-35 -16.5v0zM228 449l22 -67q16 8 35 16.5t42 15.5q23 8 44 10t39 1l-22 70q-20 0 -40.5 -3t-42.5 -10q-22 -8 -41 -16t-36 -17v0zM566 901
q-66 -22 -102.5 -61t-53.5 -70q-31 15 -84 25t-119 -11q-97 -32 -150 -83.5l-53 -51.5l209 -644q5 -15 20.5 -17.5t24.5 9.5q19 28 58.5 60.5t108.5 54.5q66 22 113.5 6.5t73.5 -35.5q10 -8 22.5 -3.5t16.5 16.5q10 32 39 72t95 61q69 23 119.5 19.5t82.5 -14.5
q15 -5 26 6.5t6 25.5l-209 645l-73.5 10.5t-170.5 -20.5v0zM561 192q-32 9 -73 11t-88 -14q-48 -15 -82 -34.5t-56 -36.5l-166 511q13 13 46 36t90 42q53 17 96 7t72 -27l161 -495v0zM914 329q-28 2 -67 -2.5t-87 -20.5q-48 -15 -80 -40.5t-52 -51.5l-161 495q13 31 42 64
t83 50q56 19 96 20t60 -2l166 -512v0z" />
    <glyph glyph-name="uniE949" unicode="&#xe949;" 
d="M210 251l-159 -149l103 -102l148 159l108 -108v307h-308l108 -107v0zM973 819l-103 103l-148 -159l-108 107v-307h308l-108 108l159 148v0z" />
    <glyph glyph-name="uniE94A" unicode="&#xe94a;" 
d="M358 410l-150 -155l-106 124v-328h327l-124 107l155 150l-102 102v0zM595 870l124 -106l-155 -150l102 -103l150 156l106 -125v328h-327v0z" />
    <glyph glyph-name="uniE94B" unicode="&#xe94b;" 
d="M777 870h-572q-42 0 -72.5 -30t-30.5 -72v-614q0 -43 30.5 -73t72.5 -30h614q42 0 72.5 30t30.5 73v556l-145 160v0zM717 563q0 -21 -15 -36t-36 -15h-308q-21 0 -36 15t-15 36v256h410v-256v0zM666 768h-103v-205h103v205v0z" />
    <glyph glyph-name="uniE94C" unicode="&#xe94c;" 
d="M512 922l-256 -359h512l-256 359v0zM512 0l256 358h-512l256 -358v0z" />
    <glyph glyph-name="uniE94D" unicode="&#xe94d;" 
d="M727 502q53 -72 71.5 -127.5t8.5 -65.5t-65.5 8t-128.5 72l-282 -283q80 -36 168 -23.5t165 45.5t134 72.5t76 58.5q17 18 18.5 48.5t-11.5 69.5t-39 84.5t-64 92.5l-51 -52v0zM444 566q-42 64 -56 111t-5 56t56 -5t110 -56l53 52q-87 65 -161.5 87t-107.5 -11
q-18 -18 -55 -70.5t-69.5 -124t-48.5 -154.5t7 -161l277 276v0zM948 897q-15 15 -36 15t-36 -15l-800 -800q-15 -15 -15 -36.5t15 -36.5t36 -15t36 15l800 801q15 15 15 36t-15 36v0z" />
    <glyph glyph-name="uniE94E" unicode="&#xe94e;" 
d="M272 739q-22 -21 -69.5 -92t-79.5 -164t-28 -194t85 -182q82 -82 183 -86t193.5 28.5t163.5 80t93 68.5q21 22 19 62t-24.5 91t-64 108.5t-97.5 113.5t-113.5 97t-108 63.5t-90.5 25t-62 -19.5v0zM746 248q-6 -6 -32 -1.5t-64 22.5t-84.5 49.5t-93.5 79.5
q-48 47 -79.5 93.5t-49.5 84.5t-22.5 64t1.5 33q6 6 32 1t64 -22.5t84.5 -49.5t93.5 -79q48 -48 79.5 -94.5t49.5 -84.5t23 -64t-2 -32v0zM790 667l98 97q15 15 15 36t-15 37q-15 15 -36.5 15t-36.5 -15l-97 -98q-15 -15 -15 -36.5t15 -35.5q15 -15 36 -15t36 15v0zM570 778
q18 -10 38.5 -4t30.5 24l56 99q10 18 4.5 38.5t-24.5 30.5q-19 11 -39 5t-31 -25l-55 -98q-11 -19 -5 -39.5t25 -30.5v0zM1017 624q-10 18 -30.5 24t-38.5 -4l-100 -55q-18 -10 -24 -30.5t5 -38.5q10 -19 30.5 -24.5t38.5 4.5l100 54q18 11 24 31t-5 39v0z" />
    <glyph glyph-name="uniE94F" unicode="&#xe94f;" 
d="M174 609l56 -559q1 -9 22 -26t58 -33.5t88.5 -29t113.5 -12.5t113.5 12.5t88.5 29t58 33.5t22 26l57 559q-33 -18 -72.5 -31.5t-83.5 -22.5t-90.5 -13t-92.5 -4t-92.5 4t-90.5 13t-83.5 22.5t-71.5 31.5v0zM674 895l-44 49q-13 18 -28.5 23.5t-42.5 5.5h-94
q-27 0 -42.5 -5.5t-28.5 -23.5l-44 -49q-99 -17 -163 -56t-64 -72v-9q0 -30 30.5 -56t83.5 -45.5t123.5 -31t151.5 -11.5t151.5 11.5t123.5 31t83.5 45.5t30.5 56v9q0 33 -64 72t-163 56v0zM618 751l-55 68h-102l-55 -68h-87l49.5 58.5t58.5 70.5q7 9 15 12.5t18 3.5h104
q10 0 18 -3.5t15 -12.5q9 -12 58.5 -70.5l49.5 -58.5h-87v0z" />
    <glyph glyph-name="uniE950" unicode="&#xe950;" 
d="M256 666h512l-256 -461l-256 461v0z" />
    <glyph glyph-name="uniE951" unicode="&#xe951;" 
d="M717 717v-512l-461 256l461 256v0z" />
    <glyph glyph-name="uniE952" unicode="&#xe952;" 
d="M768 461l-461 -256v512l461 -256v0z" />
    <glyph glyph-name="uniE953" unicode="&#xe953;" 
d="M768 256h-512l256 461l256 -461v0z" />
    <glyph glyph-name="uniE954" unicode="&#xe954;" 
d="M976 415l-163 406q-9 22 -29 35.5t-44 13.5h-456q-24 0 -44 -13.5t-29 -35.5l-163 -406q-11 -28 -14 -57.5t2 -59.5l30 -181q5 -28 27 -47t51 -19h736q29 0 51 19t27 47l30 181q5 30 2 59.5t-14 57.5v0zM283 728l84 58l146 -103l147 103l84 -58l-147 -104l150 -106
l-84 -60l-150 107l-149 -107l-84 60l150 106l-147 104v0zM868 192q-2 -16 -15 -27t-30 -11h-622q-17 0 -30 11t-15 27l-19 113q-4 21 10 37t36 16h658q22 0 36 -16t10 -37l-19 -113v0z" />
    <glyph glyph-name="uniE955" unicode="&#xe955;" 
d="M779 633q-11 0 -21 -1t-21 -3q-12 42 -37 76.5t-59.5 60t-76 39.5t-87.5 14q-57 0 -106.5 -21t-86.5 -57t-58.5 -84.5t-21.5 -103.5q0 -10 1 -19.5t2 -19.5q-5 1 -10.5 1.5t-11.5 0.5q-77 0 -131 -53t-54 -128t54 -128t131 -53h225v204h-128l230 256l230 -256h-128v-204
h165q51 0 95.5 18.5t77.5 51t52.5 76.5t19.5 93q0 50 -19.5 93.5t-52.5 76t-77.5 51.5t-95.5 19v0z" />
    <glyph glyph-name="uniE956" unicode="&#xe956;" 
d="M410 358h204v308h154l-256 256l-256 -256h154v-308v0zM990 280q-8 9 -47.5 51t-55.5 57q-10 10 -24 16t-29 6h-90l157 -154h-182q-4 0 -7 -1.5t-5 -5.5l-42 -95h-306l-42 95q-2 4 -5 5.5t-7 1.5h-182l157 154h-90q-15 0 -29 -6t-24 -16q-15 -15 -55 -57t-48 -51
q-19 -20 -28 -37.5t-4 -36.5l28 -158q5 -19 24 -33.5t40 -14.5h836q21 0 40 14.5t24 33.5l28 158q5 19 -4 36.5t-28 37.5v0z" />
    <glyph glyph-name="uniE957" unicode="&#xe957;" 
d="M819 -7q0 41 -19 74t-50.5 60t-71 48t-80.5 39q-82 35 -113 71t-31 100q0 38 18.5 47.5t29.5 79.5q5 29 21 25.5t20 62.5q0 26 -8 35l-8 9l4.5 31t6.5 61q3 31 -20.5 84.5t-97.5 73.5q-12 13 -13.5 32.5t37.5 40.5q-86 4 -121 -31t-81 -68q-39 -29 -52 -68.5t-12 -63.5
q3 -30 7.5 -61l4.5 -31l-8 -9t-8 -35q4 -66 20 -63t21 -25q11 -70 29.5 -79.5t18.5 -47.5q0 -64 -19 -94.5t-101 -65.5q-82 -36 -112.5 -93t-29.5 -139q0 -24 -0.5 -34l-0.5 -10h819v10v34v0zM870 461v153h-102v-153h-154v-103h154v-153h102v153h154v103h-154v0z" />
    <glyph glyph-name="uniE958" unicode="&#xe958;" 
d="M1014 708l-122 94q-5 4 -12 7t-15 5q-7 3 -14.5 4t-14.5 1h-350l41 -256h309q7 0 14.5 1.5t14.5 3.5q8 3 15 6t12 6l122 94q5 4 7.5 8.5t2.5 8.5q0 5 -2.5 9.5t-7.5 7.5v0zM435 922h-51q-11 0 -18.5 -7.5t-7.5 -18.5v-179h-170q-7 0 -14.5 -1.5t-14.5 -3.5q-8 -3 -15 -6
t-12 -6l-122 -94q-5 -4 -7.5 -8.5t-2.5 -8.5q0 -5 2.5 -9.5t7.5 -7.5l122 -94q5 -4 12 -7t15 -5q7 -3 14.5 -4t14.5 -1h170v-435q0 -11 7.5 -18.5t18.5 -7.5h51q11 0 18.5 7.5t7.5 18.5v870q0 11 -7.5 18.5t-18.5 7.5v0z" />
    <glyph glyph-name="uniE959" unicode="&#xe959;" 
d="M973 502h-25h-25q-22 0 -37 -12t-15 -29t15 -29t37 -12h25h25q21 0 36 12t15 29t-15 29t-36 12v0zM512 742q-59 0 -110 -22t-89.5 -60t-60.5 -89.5t-22 -109.5q0 -59 22 -110t60.5 -89.5t89.5 -60.5t110 -22t110 22t89.5 60.5t60.5 89.5t22 110q0 58 -22 109.5
t-60.5 89.5t-89.5 60t-110 22v0zM512 256q-42 0 -79.5 16t-65.5 44t-44 65t-16 80q0 42 16 79.5t44 65t65.5 44t79.5 16.5v-410v0zM154 461q0 17 -15 29t-37 12h-25.5h-25.5q-21 0 -36 -12t-15 -29t15 -29t36 -12h25.5h25.5q22 0 37 12t15 29v0zM512 819q17 0 29 15t12 36
v26v26q0 21 -12 36t-29 15t-29 -15t-12 -36v-26v-26q0 -21 12 -36t29 -15v0zM512 102q-17 0 -29 -15t-12 -36v-25.5v-25.5q0 -21 12 -36t29 -15t29 15t12 36v25.5v25.5q0 21 -12 36t-29 15v0zM889 780q15 15 17 34t-10 31t-31 10t-34 -17q-4 -4 -17.5 -18t-18.5 -18
q-15 -15 -17 -34t10 -31t31 -10t34 17l18 18l18 18v0zM171 178q-4 -5 -18 -18.5t-18 -17.5q-15 -15 -17 -34t10 -31t31 -10t34 17l17.5 17.5l18.5 18.5q15 15 17 34t-10 31t-31 9.5t-34 -16.5v0zM193 838q-15 15 -34 17t-31 -10t-10 -31t17 -34l18 -18l18 -18q15 -15 34 -17
t31 10t10 31t-17 34q-5 4 -18.5 18t-17.5 18v0zM795 120q4 -5 18 -18.5t18 -17.5q15 -15 34 -17.5t31 9.5t10 31.5t-17 34.5q-4 4 -18 17.5t-18 17.5q-15 15 -34 17.5t-31 -9.5t-10 -31t17 -34v0z" />
    <glyph glyph-name="uniE95A" unicode="&#xe95a;" 
d="M135 647q67 58 137.5 84.5t214.5 -54.5q69 -40 125.5 -56t102.5 -16q82 0 138 36.5t102 75.5q16 14 17.5 35.5t-11.5 38.5q-14 16 -35 18t-37 -12q-67 -57 -137.5 -83.5t-214.5 54.5q-95 54 -166.5 65.5t-126.5 -1.5t-97 -43.5t-78 -61.5q-16 -14 -17.5 -35.5t11.5 -37.5
q14 -17 35 -19t37 12v0zM889 536q-67 -58 -137.5 -84.5t-214.5 55.5q-95 53 -166.5 65t-126.5 -1.5t-97 -43.5t-78 -61q-16 -14 -17.5 -35.5t11.5 -38.5q14 -16 35 -18t37 12q67 57 137.5 83.5t214.5 -54.5q69 -39 125.5 -55.5t102.5 -16.5q82 0 138 37t102 76
q16 14 17.5 35.5t-11.5 37.5q-14 17 -35 19t-37 -12v0zM889 274q-67 -57 -137.5 -83.5t-214.5 54.5q-95 54 -166.5 65.5t-126.5 -1.5t-97 -43.5t-78 -61.5q-16 -14 -17.5 -35.5t11.5 -37.5q14 -17 35 -19t37 12q67 58 137.5 84.5t214.5 -54.5q69 -39 125.5 -55.5
t102.5 -16.5q82 0 138 36.5t102 75.5q16 14 17.5 35.5t-11.5 38.5q-14 17 -35 18.5t-37 -12.5v0z" />
    <glyph glyph-name="uniE95B" unicode="&#xe95b;" 
d="M960 152q-4 -11 -56.5 -19.5t-252.5 64.5l-261 94q-34 12 -73.5 27.5t-76.5 31t-68.5 30t-50.5 24.5q-27 16 -35 41l-8 25l-1.5 24.5t-3.5 56t-4.5 63t-3.5 45.5q-4 28 4.5 33.5t35.5 -8.5q9 -4 25.5 -26t35 -50.5t36.5 -57.5t29 -49q59 -14 107 -27.5t72 -20.5
q-5 33 -11.5 77l-13 88t-12.5 81.5t-9 56.5q-7 37 10.5 32.5l17.5 -4.5q12 -7 32.5 -22.5t28.5 -28.5q30 -45 63 -103.5t61.5 -112.5t49 -93.5t23.5 -45.5q34 -11 80.5 -26t78.5 -27q82 -30 119 -95t32 -78v0z" />
    <glyph glyph-name="uniE95C" unicode="&#xe95c;" 
d="M1017 642q5 -9 -26 -52.5t-224 -133.5l-251 -118q-33 -16 -71.5 -33t-76 -32t-70 -27.5t-53.5 -17.5q-29 -8 -53 4l-24 12l-18 16t-42 37t-47.5 41.5t-34.5 29.5q-23 17 -20.5 27t31.5 19q9 3 36 -0.5t60 -10.5t66.5 -15t55.5 -14q51 31 95 56t66 36q-27 20 -63 47
t-72 53t-66.5 48.5t-46.5 33.5q-31 22 -15.5 31l15.5 9q15 3 40 6.5t40 0.5q53 -11 117.5 -29t123 -35.5t100.5 -31.5t49 -16q32 17 75.5 39t74.5 36q79 37 151 17.5t78 -33.5v0z" />
    <glyph glyph-name="uniE95D" unicode="&#xe95d;" 
d="M640 81q-8 21 -23.5 63t-34 90t-36 94t-29.5 76q-42 -29 -88 -54.5t-91 -44.5q-14 -49 -37.5 -121.5t-36.5 -85.5q-24 -21 -34 -18t-14 33q-3 29 -14 97l-11 68l-59.5 33.5t-85.5 47.5q-26 13 -25.5 24t28.5 26q16 8 91.5 5.5t125.5 -6.5q33 37 73 72t80 65
q-23 21 -60 53.5t-75 66.5t-71.5 63.5t-50.5 43.5q-30 25 -13 33l17 8q15 2 41 3.5t42 -3.5q48 -14 106.5 -33t112.5 -36.5t97 -32t61 -19.5q14 9 28.5 19.5t30.5 22.5q181 127 243 127.5t70 -11.5q9 -13 -12.5 -71.5t-202.5 -186.5q-16 -11 -31 -21.5t-28 -20.5
q-1 -19 -2 -64.5t-3.5 -103t-5 -119.5t-5.5 -113q-1 -16 -11 -41t-18 -38l-13 -13.5t-26 23.5v0z" />
    <glyph glyph-name="uniE95E" unicode="&#xe95e;" 
d="M666 410h-103v409h-102v-409h-103l154 -154l154 154v0zM891 205h-758q-21 0 -26 -15t-5 -36q0 -22 5 -37t26 -15h758q21 0 26 15t5 37q0 21 -5 36t-26 15v0z" />
    <glyph glyph-name="uniE95F" unicode="&#xe95f;" 
d="M410 461l-154 153v-102h-205v-102h205v-103l154 154v0zM768 307v103h205v102h-205v102l-154 -153l154 -154v0zM512 51q21 0 36 5t15 26v758q0 21 -15 25.5t-36 4.5t-36 -4.5t-15 -25.5v-758q0 -21 15 -26t36 -5v0z" />
    <glyph glyph-name="uniE960" unicode="&#xe960;" 
d="M307 461l154 -154v103h409v102h-409v102l-154 -153v0zM205 870q-21 0 -36 -4.5t-15 -25.5v-758q0 -21 15 -26t36 -5t36 5t15 26v758q0 21 -15 25.5t-36 4.5v0z" />
    <glyph glyph-name="uniE961" unicode="&#xe961;" 
d="M563 614v-102h-409v-102h409v-103l154 154l-154 153v0zM768 840v-758q0 -21 15 -26t36 -5t36 5t15 26v758q0 21 -15 25.5t-36 4.5t-36 -4.5t-15 -25.5v0z" />
    <glyph glyph-name="uniE962" unicode="&#xe962;" 
d="M512 666l-154 -154h103v-410h102v410h103l-154 154v0zM922 768q0 21 -5 36t-26 15h-758q-21 0 -26 -15t-5 -36t5 -36t26 -15h758q21 0 26 15t5 36v0z" />
    <glyph glyph-name="uniE963" unicode="&#xe963;" 
d="M512 358l-154 -153h103v-205h102v205h103l-154 153v0zM666 717h-103v205h-102v-205h-103l154 -154l154 154v0zM922 461q0 21 -5 36t-26 15h-758q-21 0 -26 -15t-5 -36t5 -36t26 -15h758q21 0 26 15t5 36v0z" />
    <glyph glyph-name="uniE964" unicode="&#xe964;" 
d="M716 870h-408l-25.5 -6t-25.5 -45h510q0 39 -25.5 45l-25.5 6v0zM869 717q0 38 -25.5 44.5l-25.5 6.5h-612l-25.5 -6.5t-25.5 -44.5v-51h714v51v0zM971 666q-23 22 -26.5 26l-3.5 4v-82h-858v82l-3.5 -4t-26.5 -26q-22 -23 -35 -39t-4 -64q4 -24 16 -92t25 -144
t24 -141.5t14 -83.5q7 -39 34.5 -45l27.5 -6h714l27.5 6t34.5 45q3 18 14.5 83.5t24 141.5t24.5 144t16 92q9 48 -4 64t-35 39v0zM717 359q0 -22 -15 -37t-37 -15h-306q-22 0 -37 15t-15 37v102h51v-103h308v103h51v-102v0z" />
    <glyph glyph-name="uniE965" unicode="&#xe965;" 
d="M1024 870v-819h-1008q-12 0 -15 7t4 17l229 294q8 10 19.5 11t21.5 -8l72 -68q9 -8 20.5 -6.5t17.5 11.5l156 243q7 10 18 11.5t20 -7.5l112 -107q8 -9 19 -7.5t18 12.5l262 399q7 11 15.5 14t18.5 3v0z" />
    <glyph glyph-name="uniE966" unicode="&#xe966;" 
d="M287 -41q-50 0 -95 20t-78 54q-33 33 -52.5 76.5t-20.5 92t18.5 99t65.5 96.5q26 27 87.5 89t135 136.5t148 150t128.5 129.5q38 39 84 53t92 2q46 -13 80 -47.5t47 -80.5q12 -47 -2 -94t-52 -85l-477 -483q-21 -21 -43.5 -33t-45.5 -15q-23 -2 -44 5t-37 23
q-27 28 -27 76t47 95l335 339q10 11 24.5 11t25.5 -11q10 -10 10 -25t-10 -25l-336 -340q-21 -22 -24.5 -41t5.5 -29q4 -4 10 -5.5t13 -1.5q11 2 23 8.5t24 18.5l477 483q25 25 34 53.5t1 56.5q-7 28 -28 49t-48 29q-28 7 -56 -2t-53 -34q-53 -54 -127.5 -129.5t-148 -150
t-135 -136.5t-88.5 -89q-69 -71 -62 -144.5t52 -119.5q45 -45 117.5 -52.5t142.5 63.5l499 505q10 11 24.5 11t25.5 -11q10 -10 10 -25t-10 -25l-499 -505q-45 -45 -93 -65t-94 -20v0z" />
    <glyph glyph-name="uniE967" unicode="&#xe967;" 
d="M849 136q-15 20 -41 55t-58 78t-67 89.5t-68 90.5q26 38 46.5 68t30.5 47q59 99 46.5 167.5t-45.5 122.5t-58 84t-123 30t-123 -30t-58 -84t-45.5 -122.5t46.5 -167.5q10 -17 30.5 -47t46.5 -68q-33 -44 -68 -90.5t-67 -89.5t-58 -78t-41 -55q-6 -9 -6 -24t7 -31
q5 -13 19.5 -53.5t18.5 -52.5q6 -15 23 -21t33 16q4 7 27 38.5t57 78t75.5 103.5t82.5 114q41 -57 82.5 -114t75.5 -103.5t57 -78t27 -38.5q16 -22 33 -16t23 21q4 12 18.5 52.5t19.5 53.5q7 16 7 31t-6 24v0zM493 611q-41 57 -67.5 111l-26.5 54l22.5 19t90.5 19t90.5 -19
l22.5 -19l-26.5 -54t-67.5 -111q-4 -4 -8.5 -11t-10.5 -14q-6 7 -10.5 14t-8.5 11v0z" />
    <glyph glyph-name="uniE968" unicode="&#xe968;" 
d="M563 881q-85 0 -160.5 -32t-132 -87.5t-90 -130.5t-35.5 -160v-10h-121l184 -200l178 200h-136v10q2 64 27 119.5t67.5 96.5t99 65t119.5 24q65 0 122.5 -25t100 -67.5t67 -100t24.5 -122.5t-24.5 -122.5t-67 -100.5t-100 -67.5t-122.5 -24.5q-52 0 -99 16t-87 45
l-71 -77q53 -42 118.5 -65.5t138.5 -23.5q87 0 163 33t133 90t90 133.5t33 163.5t-33 163.5t-90 133.5t-133 90t-163 33v0zM512 717v-256q0 -5 1 -10t3 -10q2 -4 4.5 -8.5t6.5 -7.5l164 -164q11 7 21 15t19 17l-117 117v307h-102v0z" />
    <glyph glyph-name="uniE969" unicode="&#xe969;" 
d="M973 614v-307q0 -42 -30 -72t-73 -30h-716v153h665v205h-563v-102l-205 179l205 179v-102h614q43 0 73 -30t30 -73v0z" />
    <glyph glyph-name="uniE96A" unicode="&#xe96a;" 
d="M870 922h-102q-21 0 -36 -15t-15 -37v-870h205v870q0 22 -15 37t-37 15v0zM563 614h-102q-21 0 -36 -15t-15 -36v-563h204v563q0 21 -15 36t-36 15v0zM256 307h-102q-22 0 -37 -15t-15 -36v-256h205v256q0 21 -15 36t-36 15v0z" />
    <glyph glyph-name="uniE96B" unicode="&#xe96b;" 
d="M789 461q0 106 39 163.5t77 57.5h41h27q-26 41 -60 63.5t-127 22.5h-513q-72 0 -123.5 -29.5t-84.5 -75t-49 -99.5t-16 -103t16 -103.5t49 -99.5t84.5 -74.5t123.5 -29.5h513q93 0 127 22.5t60 63.5h-14.5h-53.5q-38 0 -77 57.5t-39 163.5v0zM650 369q-7 -10 -21 -5.5
l-14 4.5l-151 69l-8 -20.5t-16 -38.5t-19 -31t-43 10q-16 12 -47 39.5t-61 55.5t-53 50l-23 22l-7.5 9t-0.5 19q6 10 20 5.5l14 -4.5l152 -69l8 20.5t16 38.5q7 18 18 30.5t43 -9.5q17 -12 47.5 -39.5t61 -55.5t53 -50l22.5 -22l7.5 -9t1.5 -19v0zM966 567h-38
q-21 0 -39 -27t-18 -74q0 -48 18 -75t39 -27h38q22 0 40 27t18 75q0 47 -18 74t-40 27v0z" />
    <glyph glyph-name="uniE96C" unicode="&#xe96c;" 
d="M870 922v-666q0 -48 -49 -101t-143 -53q-47 0 -81 24.5t-34 71.5q0 61 47 96t107 35q16 0 29 -2t22 -4v375l-358 -65v-479h-1q0 -48 -48.5 -101t-142.5 -53q-48 0 -82 24.5t-34 71.5q0 61 47 96t107 35q17 0 29.5 -2t21.5 -5v599l563 103v0z" />
    <glyph glyph-name="uniE96D" unicode="&#xe96d;" 
d="M750 537q-44 94 -80 160t-76 107t-90.5 59t-121.5 17q-51 -1 -58 21.5t-46 8.5q-38 -15 -29 -36.5t-31 -54.5q-56 -46 -82.5 -92.5t-31.5 -104.5t8.5 -132t39.5 -175q22 -85 -19 -115.5t-12 -112.5q11 -31 53.5 -51t105.5 -26t141.5 4t161.5 41q84 31 150.5 75t111 90
t64 89t9.5 73q-30 82 -80.5 79t-87.5 76v0zM559 123q-74 -28 -140 -35.5t-116 -4.5t-80 12.5t-33 16.5q-4 13 9 38t47.5 57t92 67t143.5 67q85 31 151 42.5t112.5 10.5t72.5 -12.5t31 -25.5q3 -8 -14 -35t-53.5 -62t-92 -71.5t-130.5 -64.5v0zM495 302q-78 -29 -132.5 -61
t-89.5 -61q24 -23 66.5 -27.5t88.5 12.5q59 22 90.5 65.5t17.5 83.5q0 1 -0.5 1t-0.5 1q-10 -3 -19.5 -6.5t-20.5 -7.5v0z" />
    <glyph glyph-name="uniE96E" unicode="&#xe96e;" 
d="M130 -51h177l72 189l-152 52l-97 -241v0zM645 138l72 -189h177l-97 241l-152 -52v0zM922 870h-333l-26 103h-102l-26 -103h-333q-21 0 -36 -15t-15 -36v-563q0 -21 15 -36t36 -15h820q21 0 36 15t15 36v563q0 21 -15 36t-36 15v0z" />
    <glyph glyph-name="uniE96F" unicode="&#xe96f;" 
d="M512 952q-102 0 -191.5 -38.5t-156 -105t-105.5 -156t-39 -191.5t39 -191.5t105.5 -156.5t156 -105.5t191.5 -38.5t191.5 38.5t156 105.5t105.5 156.5t39 191.5t-39 191.5t-105.5 156t-156 105t-191.5 38.5v0zM123 461q0 80 30.5 151t83.5 124t123.5 83.5t151.5 30.5
q70 0 133 -23.5t114 -64.5l-548 -548q-41 51 -64.5 114t-23.5 133v0zM512 72q-70 0 -133 23.5t-114 64.5l548 547q41 -50 64.5 -113t23.5 -133q0 -81 -30.5 -152t-83.5 -123.5t-123.5 -83t-151.5 -30.5v0z" />
    <glyph glyph-name="uniE970" unicode="&#xe970;" 
d="M870 668v-530q0 -20 -15 -32t-36 -27q-17 -12 -34 -1t-17 31v79.5v175.5v177.5v85.5q0 8 -3.5 15t-12.5 12q-5 2 -67.5 35t-135.5 71.5t-133 70l-60 31.5q-5 2 -24 8.5t-46 -7.5q-25 -13 -39.5 -26t-17.5 -20l419 -229q8 -5 13 -11.5t5 -15.5v-553q0 -9 -5.5 -17
t-13.5 -13q-4 -2 -8.5 -3t-8.5 -1q-6 0 -11 1.5t-9 4.5q-4 2 -67 41t-139 85.5t-142 86.5t-76 46q-9 6 -17.5 15.5t-9.5 18.5l-5 526q0 8 1 21.5t13 31.5q14 21 41.5 41.5t60 34.5t65.5 18.5t57 -8.5l460 -233q9 -4 13.5 -13t4.5 -24v0z" />
    <glyph glyph-name="uniE971" unicode="&#xe971;" 
d="M868 590q-42 -55 -82.5 -86.5t-83.5 -47t-90.5 -20t-104.5 -7.5h-5q-69 0 -127 11t-99.5 26t-64.5 31t-23 26q0 9 21 23.5t58.5 29.5t90.5 26t117 14l30 75h-1.5h-1.5q-94 0 -168.5 -13.5t-125.5 -35.5t-78 -50t-27 -57v-102q0 -18 10 -92t49.5 -155.5t117 -146
t211.5 -64.5q135 0 215.5 64.5t124 146t57 155.5t13.5 92v102q0 15 -7.5 30t-22.5 29l-3 -4v0zM901 834q-17 13 -38 10t-34 -20l-185 -246l120 299q8 20 -0.5 39.5t-28.5 26.5q-19 8 -38.5 0t-27.5 -28l-167 -417q111 6 176.5 24t133.5 110q69 91 84 111l15 20q12 17 9.5 38
t-19.5 33v0z" />
    <glyph glyph-name="uniE972" unicode="&#xe972;" 
d="M942 870h-860q-13 0 -22 -9t-9 -21v-123h922v123q0 12 -9 21t-22 9v0zM102 123q0 -30 21 -51t51 -21h676q29 0 50.5 21t21.5 51v543h-820v-543v0zM358 563h308v-102h-308v102v0z" />
    <glyph glyph-name="uniE973" unicode="&#xe973;" 
d="M461 461h102v-103h461l-1 37t-3 86.5t-3.5 99.5t-2.5 77q-2 51 -24 80.5t-79 29.5h-164q-19 36 -37 70t-24 46q-13 23 -22.5 30.5t-38.5 7.5h-227q-28 0 -37.5 -7.5t-22.5 -30.5q-6 -12 -24 -46t-37 -70h-164q-57 0 -79 -29.5t-24 -80.5q-1 -25 -2.5 -75t-3.5 -100
t-3 -87.5l-1 -37.5h461v103v0zM392 824q8 16 15 21t26 5h157q20 0 27 -5t15 -21q4 -7 12 -22t18 -34h-300q10 19 18 34t12 22v0zM563 205h-102v102h-435l3.5 -55.5t6.5 -114.5q1 -24 16 -55t76 -31h768q61 0 76 31t16 55q4 60 7 115l3 55h-435v-102v0z" />
    <glyph glyph-name="uniE974" unicode="&#xe974;" 
d="M922 870h-820q-42 0 -72 -30t-30 -72v-614q0 -43 30 -73t72 -30h820q42 0 72 30t30 73v614q0 42 -30 72t-72 30v0zM230 781q16 0 27.5 -11.5t11.5 -27.5q0 -15 -11.5 -26.5t-27.5 -11.5q-15 0 -26.5 11.5t-11.5 26.5q0 16 11.5 27.5t26.5 11.5v0zM90 742q0 16 11 27.5
t27 11.5t27 -11.5t11 -27.5q0 -15 -11 -26.5t-27 -11.5t-27 11.5t-11 26.5v0zM922 154h-820v460h820v-460v0zM922 717h-615v51h616l-1 -51v0z" />
    <glyph glyph-name="uniE975" unicode="&#xe975;" 
d="M141 278q-58 -57 -47.5 -120t-67.5 -150q-17 -20 12.5 -26t81 3t111.5 34t105 68q37 37 29.5 85.5t-47.5 88.5q-40 39 -89.5 46.5t-87.5 -29.5v0zM1000 939q-15 15 -93.5 -34.5t-177.5 -124t-195 -155t-145 -129.5q-49 -48 -70.5 -76t-36.5 -48q-6 -8 -0.5 -11.5
t8.5 -5.5q20 -10 35 -20.5t32 -27.5q18 -17 29 -32t21 -34q2 -4 5.5 -9t11.5 1q20 15 48.5 36t77.5 69t131 142.5t158 191.5t126 174.5t35 92.5v0z" />
    <glyph glyph-name="uniE976" unicode="&#xe976;" 
d="M563 922q-94 0 -169.5 -14t-128 -36t-79 -48.5t-22.5 -52.5q3 -15 9 -66t14 -102q-93 -36 -128 -88.5t-31 -100.5q5 -56 58 -107t164 -61q63 -6 132.5 26t118.5 91q-4 8 -6.5 17t-2.5 19q0 30 21 51t50 21q30 0 51 -21t21 -51q0 -29 -20.5 -50t-49.5 -21q-30 -38 -66 -68
t-76.5 -50t-83 -30t-85.5 -7q2 -13 3 -32t2 -25q2 -11 24 -30.5t61 -38.5t94.5 -33t124.5 -14t124.5 14t95 33t61 38.5t23.5 30.5t15.5 104.5t30 207t31 215t18.5 128.5q4 26 -22.5 52.5t-78.5 48.5t-128 36t-170 14v0zM99 421q-2 24 20.5 54.5t78.5 54.5q8 -51 16.5 -105
t16.5 -103q-62 12 -95.5 40t-36.5 59v0zM563 664q-69 0 -126.5 11.5t-99.5 26.5t-65 31t-23 25q0 10 23 25.5t65 30t99.5 25.5t126.5 11t127 -11t99.5 -25.5t64.5 -30t23 -25.5q0 -9 -23 -25t-64.5 -31t-99.5 -26.5t-127 -11.5v0z" />
    <glyph glyph-name="uniE977" unicode="&#xe977;" 
d="M491 664q75 0 99 44.5t-5 100.5q-34 65 22.5 113.5t4.5 48.5q-25 0 -58.5 -13t-65.5 -35t-57 -51.5t-34 -63.5q-13 -51 11 -97.5t83 -46.5v0zM758 205l-23 20q-19 16 -44.5 16t-44.5 -16l-23 -19q-23 -21 -52 -31t-59 -10t-58.5 10t-52.5 30l-23 20q-19 16 -44.5 16
t-44.5 -16l-22 -20q-46 -39 -107 -40t-109 35v-200q0 -21 15 -36t37 -15h819q21 0 36 15t15 36v200q-48 -36 -109 -35t-106 40v0zM512 614q-145 0 -235.5 -28t-140.5 -68t-67.5 -84t-17.5 -76v-24l60 -51q18 -16 44 -16t45 16l22 20q48 41 111.5 41t111.5 -41l23 -20
q18 -16 44 -16t44 16l23 20q48 41 111.5 41t111.5 -41l22 -20q19 -16 44.5 -16t44.5 16l60 51v24q0 32 -17.5 76t-67.5 84t-140.5 68t-235.5 28v0z" />
    <glyph glyph-name="uniE978" unicode="&#xe978;" 
d="M748 922h-472q-29 0 -50 -21t-21 -51v-778q0 -30 21 -51t50 -21h472q29 0 50 21t21 51v778q0 30 -21 51t-50 21v0zM358 358q27 0 45.5 -15t18.5 -36t-18.5 -36t-45.5 -15q-26 0 -45 15t-19 36t19 36t45 15v0zM294 461q0 21 19 36t45 15q27 0 45.5 -15t18.5 -36t-18.5 -36
t-45.5 -15q-26 0 -45 15t-19 36v0zM358 205q27 0 45.5 -15t18.5 -36q0 -22 -18.5 -37t-45.5 -15q-26 0 -45 15t-19 37q0 21 19 36t45 15v0zM512 358q26 0 45 -15t19 -36t-19 -36t-45 -15t-45 15t-19 36t19 36t45 15v0zM448 461q0 21 19 36t45 15t45 -15t19 -36t-19 -36
t-45 -15t-45 15t-19 36v0zM512 205q26 0 45 -15t19 -36q0 -22 -19 -37t-45 -15t-45 15t-19 37q0 21 19 36t45 15v0zM666 358q26 0 45 -15t19 -36t-19 -36t-45 -15q-27 0 -45.5 15t-18.5 36t18.5 36t45.5 15v0zM602 461q0 21 18.5 36t45.5 15q26 0 45 -15t19 -36t-19 -36
t-45 -15q-27 0 -45.5 15t-18.5 36v0zM666 205q26 0 45 -15t19 -36q0 -22 -19 -37t-45 -15q-27 0 -45.5 15t-18.5 37q0 21 18.5 36t45.5 15v0zM256 614v154h512v-154h-512v0z" />
    <glyph glyph-name="uniE979" unicode="&#xe979;" 
d="M870 819h-51v-102h-153v102h-308v-102h-153v102h-51q-43 0 -73 -30t-30 -72v-615q0 -42 30 -72t73 -30h716q43 0 73 30t30 72v615q0 42 -30 72t-73 30v0zM870 102h-716v410h716v-410v0zM333 922h-103v-180h103v180v0zM794 922h-103v-180h103v180v0z" />
    <glyph glyph-name="uniE97A" unicode="&#xe97a;" 
d="M512 563q-64 0 -109 -45t-45 -108q0 -64 45 -109t109 -45t109 45t45 109q0 63 -45 108t-109 45v0zM922 717h-123q-13 0 -25 8.5t-16 20.5l-31 95q-5 12 -16.5 20.5t-24.5 8.5h-348q-13 0 -25 -8.5t-15 -20.5l-32 -95q-4 -12 -16 -20.5t-25 -8.5h-123q-42 0 -72 -30
t-30 -73v-460q0 -43 30 -73t72 -30h820q42 0 72 30t30 73v460q0 43 -30 73t-72 30v0zM512 154q-53 0 -99.5 20t-81.5 54.5t-55 81.5t-20 100t20 99.5t55 81t81.5 55t99.5 20.5t99.5 -20.5t81.5 -55t55 -81t20 -99.5t-20 -100t-55 -81.5t-81.5 -54.5t-99.5 -20v0zM896 553
q-15 0 -25.5 10.5t-10.5 25.5t10.5 25.5t25.5 10.5t25.5 -10.5t10.5 -25.5t-10.5 -25.5t-25.5 -10.5v0z" />
    <glyph glyph-name="uniE97B" unicode="&#xe97b;" 
d="M35 461h122v10q2 85 35.5 160t90 130.5t131.5 87.5t161 32t162.5 -33t133.5 -90t89.5 -133.5t32.5 -163.5t-32.5 -163.5t-89.5 -133.5t-133.5 -90t-162.5 -33q-73 0 -139 23.5t-119 65.5l72 77q39 -29 86.5 -45t99.5 -16q65 0 122 24.5t99.5 67.5t67.5 100.5t25 122.5
t-25 122.5t-67.5 100t-99.5 67.5t-122 25q-64 0 -120 -24t-98.5 -65t-68 -96.5t-27.5 -119.5v-10h137l-179 -200l-184 200v0z" />
    <glyph glyph-name="uniE97C" unicode="&#xe97c;" 
d="M297 348v318h-195q-42 0 -72 -30.5t-30 -72.5v-307q0 -42 30 -72t72 -30h52v-154l153 154h256q42 0 72.5 30t30.5 72v93q-3 0 -5.5 -0.5t-5.5 -0.5h-358v0zM922 922h-461q-42 0 -72.5 -30.5t-30.5 -72.5v-409h359l153 -154v154h52q42 0 72 30t30 72v307q0 42 -30 72.5
t-72 30.5v0z" />
    <glyph glyph-name="uniE97D" unicode="&#xe97d;" 
d="M425 103q-17 0 -32 7t-25 21l-183 242q-18 23 -14 52.5t28 46.5q23 18 52.5 14t47.5 -27l120 -159l303 486q15 25 44 31.5t54 -9.5q25 -15 32 -44t-9 -54l-358 -574q-9 -15 -24 -24t-33 -9h-2h-1v0z" />
    <glyph glyph-name="uniE97E" unicode="&#xe97e;" 
d="M512 891q-89 0 -167.5 -34t-136.5 -92t-92 -136.5t-34 -167.5t34 -167.5t92 -137t136.5 -92t167.5 -33.5t167.5 33.5t136.5 92t92 137t34 167.5t-34 167.5t-92 136.5t-136.5 92t-167.5 34v0zM757 304l-88 -88l-157 156l-157 -156l-88 88l157 157l-157 157l88 88l157 -157
l157 157l88 -88l-157 -157l157 -157v0z" />
    <glyph glyph-name="uniE97F" unicode="&#xe97f;" 
d="M512 891q-89 0 -167.5 -34t-136.5 -92t-92 -136.5t-34 -167.5t34 -167.5t92 -137t136.5 -92t167.5 -33.5t167.5 33.5t136.5 92t92 137t34 167.5t-34 167.5t-92 136.5t-136.5 92t-167.5 34v0zM768 410h-512v102h512v-102v0z" />
    <glyph glyph-name="uniE980" unicode="&#xe980;" 
d="M512 891q-89 0 -167.5 -34t-136.5 -92t-92 -136.5t-34 -167.5t34 -167.5t92 -137t136.5 -92t167.5 -33.5t167.5 33.5t136.5 92t92 137t34 167.5t-34 167.5t-92 136.5t-136.5 92t-167.5 34v0zM768 410h-205v-205h-102v205h-205v102h205v205h102v-205h205v-102v0z" />
    <glyph glyph-name="uniE981" unicode="&#xe981;" 
d="M512 952q-102 0 -191.5 -38.5t-156 -105t-105.5 -156t-39 -191.5t39 -191.5t105.5 -156t156 -105.5t191.5 -39t191.5 39t156 105.5t105.5 156t39 191.5t-39 191.5t-105.5 156t-156 105t-191.5 38.5v0zM512 72q-81 0 -151.5 30.5t-123.5 83t-83.5 123.5t-30.5 152
q0 80 30.5 151t83.5 124t123.5 83.5t151.5 30.5t151.5 -30.5t123.5 -83.5t83.5 -124t30.5 -151q0 -81 -30.5 -152t-83.5 -123.5t-123.5 -83t-151.5 -30.5v0z" />
    <glyph glyph-name="uniE982" unicode="&#xe982;" 
d="M900 493h103q-3 40 -11.5 78.5t-23.5 74.5l-89 -52q8 -24 13.5 -49.5t7.5 -51.5v0zM722 906q-37 18 -76.5 29.5t-81.5 15.5v-103q28 -4 55 -11.5t52 -18.5l51 88v0zM832 685l89 51q-23 34 -51 63.5t-60 53.5l-52 -89q21 -17 39.5 -37t34.5 -42v0zM513 73q-81 0 -152 30.5
t-123.5 83.5t-83 124t-30.5 151q0 74 26 140t71.5 117.5t107 85t133.5 43.5v103q-93 -10 -173.5 -51.5t-140 -107t-93.5 -150t-34 -180.5q0 -102 38.5 -191.5t105.5 -156t156.5 -105t191.5 -38.5q92 0 175 32t147.5 88.5t107 133.5t55.5 166h-103q-13 -68 -47.5 -126
t-85 -100.5t-114.5 -67t-135 -24.5v0z" />
    <glyph glyph-name="uniE983" unicode="&#xe983;" 
d="M1024 819v-717q0 -21 -15 -36t-36 -15h-922q-21 0 -36 15t-15 36v717q0 21 15 36t36 15h51l154 -153h128l-154 153h154l154 -153h128l-154 153h154l153 -153h128l-153 153h179q21 0 36 -15t15 -36v0z" />
    <glyph glyph-name="uniE984" unicode="&#xe984;" 
d="M799 870l-62 -153h-450l-62 153q-29 0 -50 -21t-21 -50v-779q0 -29 21 -50t50 -21h574q29 0 50 21t21 50v779q0 29 -21 50t-50 21v0zM696 768l46 102h-111l-37 103h-164l-37 -103h-111l46 -102h368v0z" />
    <glyph glyph-name="uniE985" unicode="&#xe985;" 
d="M512 952q-102 0 -191.5 -38.5t-156 -105t-105.5 -156t-39 -191.5t39 -191.5t105.5 -156.5t156 -105.5t191.5 -38.5t191.5 38.5t156 105.5t105.5 156.5t39 191.5t-39 191.5t-105.5 156t-156 105t-191.5 38.5v0zM512 72q-81 0 -151.5 30.5t-123.5 83t-83.5 123.5t-30.5 152
q0 80 30.5 151t83.5 124t123.5 83.5t151.5 30.5t151.5 -30.5t123.5 -83.5t83.5 -124t30.5 -151q0 -81 -30.5 -152t-83.5 -123.5t-123.5 -83t-151.5 -30.5v0zM563 495v273h-102v-320l-182 -105l51 -88l211 121q9 6 15.5 17t6.5 22v8l217 214q-7 10 -15.5 20t-17.5 19
l-184 -181v0z" />
    <glyph glyph-name="uniE986" unicode="&#xe986;" 
d="M293 218q-9 0 -18 3t-16 10l-259 230l273 243q16 14 37 13t35 -17q15 -16 13.5 -37.5t-17.5 -35.5l-187 -166l173 -154q16 -14 17 -35t-13 -37q-8 -9 -18 -13t-20 -4v0zM751 218l273 243l-259 230q-16 14 -37 13t-35 -17t-13 -37t17 -35l173 -154l-187 -167
q-16 -14 -17.5 -35t13.5 -37q7 -9 17 -13t21 -4q9 0 18 3t16 10v0zM511 145l103 615q3 20 -9 37.5t-33 20.5q-21 4 -38.5 -8.5t-20.5 -33.5l-103 -614q-3 -21 9 -38t33 -21q3 0 5 -0.5t4 -0.5q18 0 32.5 12t17.5 31v0z" />
    <glyph glyph-name="uniE987" unicode="&#xe987;" 
d="M859 461q0 40 23 71.5t60 53.5q-7 22 -15.5 43.5t-19.5 41.5q-42 -10 -76.5 3.5t-62.5 42.5q-29 28 -37.5 62.5t2.5 76.5q-20 10 -41.5 19t-44.5 16q-22 -37 -58.5 -60t-76.5 -23t-76.5 23t-58.5 60q-23 -7 -44.5 -16t-41.5 -19q11 -42 2.5 -76.5t-37.5 -62.5
q-28 -29 -62.5 -42.5t-76.5 -3.5q-11 -20 -19.5 -41.5t-15.5 -43.5q37 -22 60 -53.5t23 -71.5t-23 -77t-60 -59q7 -22 15.5 -43.5t19.5 -41.5q42 11 76.5 2t62.5 -37q29 -29 37.5 -63t-2.5 -76q20 -11 41.5 -20t44.5 -15q22 37 58.5 59.5t76.5 22.5t77 -22.5t58 -59.5
q23 6 44.5 15t41.5 20q-11 42 -2.5 76t37.5 63q28 28 62.5 42t76.5 3q11 20 19.5 41.5t15.5 44.5q-37 22 -60 53.5t-23 71.5v0zM512 274q-77 0 -132 54.5t-55 132.5q0 77 55 132t132 55t132 -55t55 -132q0 -78 -55 -132.5t-132 -54.5v0z" />
    <glyph glyph-name="uniE988" unicode="&#xe988;" 
d="M163 666q-16 13 -37.5 11t-34.5 -18l-66 -79q-13 -16 -11 -37t18 -35l404 -335l-195 428l-78 65v0zM359 835l-93 -42q-19 -9 -26.5 -29t1.5 -39l217 -477l11 470l-42 92q-9 19 -29 26.5t-39 -1.5v0zM728 825q0 21 -14.5 36.5t-35.5 15.5l-103 3q-21 0 -36.5 -14.5
t-15.5 -35.5l-12 -525l214 418l3 102v0zM983 776l-92 47q-18 10 -38.5 3.5t-29.5 -25.5l-328 -638q-9 -19 -2.5 -39t25.5 -30l91 -47q18 -9 38.5 -2.5t30.5 25.5l327 637q9 19 2.5 39.5t-24.5 29.5v0zM655 139q-9 -19 -29.5 -25.5t-39.5 2.5q-18 10 -24.5 30t2.5 39
q10 19 30 25.5t39 -3.5q19 -9 25.5 -29.5t-3.5 -38.5v0z" />
    <glyph glyph-name="uniE989" unicode="&#xe989;" 
d="M279 228l38 6.5t91.5 22t110.5 40.5t94 63q37 37 62.5 94t41 110t22 91.5l6.5 38.5l-38 -7t-91.5 -22t-110 -40.5t-94.5 -62.5q-37 -38 -62.5 -94.5t-41 -110t-22 -91.5l-6.5 -38v0zM462 511q31 32 85 54.5t106 35.5q-14 -51 -36.5 -105t-54.5 -86q-20 -21 -49.5 -21
t-50.5 21t-21 50.5t21 50.5v0zM512 952q-102 0 -191.5 -38.5t-156 -105t-105.5 -156t-39 -191.5t39 -191.5t105.5 -156.5t156 -105.5t191.5 -38.5t191.5 38.5t156 105.5t105.5 156.5t39 191.5t-39 191.5t-105.5 156t-156 105t-191.5 38.5v0zM512 72q-81 0 -151.5 30.5
t-123.5 83t-83.5 123.5t-30.5 152q0 80 30.5 151t83.5 124t123.5 83.5t151.5 30.5t151.5 -30.5t123.5 -83.5t83.5 -124t30.5 -151q0 -81 -30.5 -152t-83.5 -123.5t-123.5 -83t-151.5 -30.5v0z" />
    <glyph glyph-name="uniE98A" unicode="&#xe98a;" 
d="M563 973h-409q-22 0 -37 -15t-15 -36v-615q0 -21 15 -36t37 -15h256v-102h102v102h-102v102h102v103h-102v-103h-205v512h307v-204h102v256q0 21 -15 36t-36 15v0zM410 614v-51h102v103h-51q-21 0 -36 -15t-15 -37v0zM614 -51h103v102h-103v-102v0zM614 563h103v103h-103
v-103v0zM410 0q0 -21 15 -36t36 -15h51v102h-102v-51v0zM870 666h-51v-103h103v51q0 22 -15 37t-37 15v0zM819 -51h51q22 0 37 15t15 36v51h-103v-102v0zM819 358h103v103h-103v-103v0zM819 154h103v102h-103v-102v0z" />
    <glyph glyph-name="uniE98B" unicode="&#xe98b;" 
d="M922 819h-820q-42 0 -72 -30t-30 -72v-512q0 -42 30 -72.5t72 -30.5h820q42 0 72 30.5t30 72.5v512q0 42 -30 72t-72 30v0zM922 205h-820v307h820v-307v0zM922 666h-820v51h820v-51v0zM205 404v-30h31v30h-31v0zM389 343v-31h62v31h30v31h31v31h-61v-31h-31v-31h-31v0z
M512 312v31h-31v-31h31v0zM358 312v31h-61v-31h61v0zM389 374h31v31h-62v-62h31v31v0zM266 343h31v31h31v31h-62v-31h-30v-31h-31v-31h61v31v0z" />
    <glyph glyph-name="uniE98C" unicode="&#xe98c;" 
d="M563 115v-115h-102v110q-66 4 -119 24.5t-98 67.5l88 89q33 -34 76 -47t92 -13q60 0 91.5 22.5t31.5 65.5q0 18 -5.5 33.5t-16.5 25.5q-10 10 -23.5 15.5t-37.5 9.5l-84 12q-45 6 -78.5 20.5t-56.5 37.5q-25 25 -37.5 59.5t-12.5 79.5q0 82 50.5 139t139.5 71v100h102
v-99q53 -6 96 -25t79 -55l-86 -86q-33 32 -70.5 40.5t-72.5 8.5q-54 0 -80.5 -26.5t-26.5 -62.5q0 -14 4.5 -27.5t15.5 -23.5t27.5 -17.5t37.5 -10.5l82 -12q48 -6 79.5 -19.5t53.5 -34.5q28 -27 41 -65t13 -84q0 -87 -54.5 -140t-138.5 -68v0z" />
    <glyph glyph-name="uniE98D" unicode="&#xe98d;" 
d="M735 213q-18 -18 -43.5 -18t-43.5 18l-136 155l-136 -155q-18 -18 -43.5 -18t-43.5 18t-18 43t18 43l142 162l-142 161q-18 18 -18 43.5t18 43.5t43.5 18t43.5 -18l136 -155l136 155q18 18 43.5 18t43.5 -18t18 -43.5t-18 -43.5l-142 -161l142 -162q18 -18 18 -43
t-18 -43v0z" />
    <glyph glyph-name="uniE98E" unicode="&#xe98e;" 
d="M512 922q-82 0 -148 -12.5t-111 -31.5t-68.5 -42t-20.5 -45l74 -690q1 -9 21.5 -25.5t56.5 -33.5t86 -29.5t110 -12.5t110 12.5t86 29.5t56.5 33.5t21.5 25.5l74 690q3 22 -20.5 45t-69 42t-111 31.5t-147.5 12.5v0zM512 702q-60 0 -110.5 9t-87 22t-56.5 26t-20 21
t20 21.5t56.5 26t87 22t110.5 9.5t110.5 -9.5t87 -22t56.5 -26t20 -21.5t-20.5 -21t-56.5 -26t-86.5 -22t-110.5 -9v0z" />
    <glyph glyph-name="uniE98F" unicode="&#xe98f;" 
d="M989 461h-122v10q-2 85 -35.5 160t-90 130.5t-131.5 87.5t-161 32t-162.5 -33t-133.5 -90t-89.5 -133.5t-32.5 -163.5t32.5 -163.5t89.5 -133.5t133.5 -90t162.5 -33q73 0 139 23.5t119 65.5l-72 77q-39 -29 -86.5 -45t-99.5 -16q-65 0 -122 24.5t-99.5 67.5t-67.5 100.5
t-25 122.5t25 122.5t67.5 100t99.5 67.5t122 25q64 0 120 -24t98.5 -65t68 -96.5t27.5 -119.5v-10h-137l179 -200l184 200v0z" />
    <glyph glyph-name="uniE990" unicode="&#xe990;" 
d="M282 245q-43 46 -64.5 104t-20.5 117.5t24 116.5t68 102q37 38 82 60t93 29l-4 107q-67 -9 -130.5 -39t-114.5 -82q-61 -61 -91.5 -137.5t-31.5 -156t28.5 -157t87.5 -139.5l-89 -90l282 -15v298l-119 -118v0zM623 857l1 -299l118 119q43 -47 64.5 -104.5t20.5 -117
t-24 -116.5t-68 -103q-37 -37 -82 -59t-93 -30l4 -106q67 8 130.5 38t114.5 82q61 61 91.5 137.5t31.5 156.5t-28 157t-88 140l89 89l-282 16v0z" />
    <glyph glyph-name="uniE991" unicode="&#xe991;" 
d="M856 326q-16 -27 -49 -49t-78 -38t-100.5 -25t-116.5 -9t-116.5 9t-100.5 25t-78 38t-49 49q-7 11 -10.5 8t-3.5 -9v-53.5v-48.5q0 -38 28 -74t76.5 -64.5t114 -46.5t139.5 -18t139.5 18t114 46.5t76.5 64.5t28 74v48.5v53.5q0 6 -3.5 9t-10.5 -8v0zM857 588
q-16 -24 -49 -43.5t-78 -33.5t-100.5 -22t-117.5 -8t-117.5 8t-100.5 22t-78 33.5t-49 43.5q-7 9 -10 6.5t-3 -6.5v-63v-58q0 -34 28 -63.5t76.5 -52t114 -35t139.5 -12.5t139.5 12.5t114 35t76.5 52t28 63.5v58v63q0 4 -3 6.5t-10 -6.5v0zM512 922q-74 0 -139.5 -11
t-114 -29t-76.5 -42.5t-28 -52.5v-65q0 -29 28 -55t76.5 -45.5t114 -31t139.5 -11.5t139.5 11.5t114 31t76.5 45.5t28 55v65q0 28 -28 52.5t-76.5 42.5t-114 29t-139.5 11v0z" />
    <glyph glyph-name="uniE992" unicode="&#xe992;" 
d="M307 973h-102q-21 0 -36 -15t-15 -36v-103q0 -21 15 -36t36 -15h102q21 0 36 15t15 36v103q0 21 -15 36t-36 15v0zM563 973h-102q-21 0 -36 -15t-15 -36v-103q0 -21 15 -36t36 -15h102q21 0 36 15t15 36v103q0 21 -15 36t-36 15v0zM819 973h-102q-21 0 -36 -15t-15 -36
v-103q0 -21 15 -36t36 -15h102q21 0 36 15t15 36v103q0 21 -15 36t-36 15v0zM307 717h-102q-21 0 -36 -15t-15 -36v-103q0 -21 15 -36t36 -15h102q21 0 36 15t15 36v103q0 21 -15 36t-36 15v0zM563 717h-102q-21 0 -36 -15t-15 -36v-103q0 -21 15 -36t36 -15h102q21 0 36 15
t15 36v103q0 21 -15 36t-36 15v0zM819 717h-102q-21 0 -36 -15t-15 -36v-103q0 -21 15 -36t36 -15h102q21 0 36 15t15 36v103q0 21 -15 36t-36 15v0zM307 461h-102q-21 0 -36 -15t-15 -36v-103q0 -21 15 -36t36 -15h102q21 0 36 15t15 36v103q0 21 -15 36t-36 15v0zM563 461
h-102q-21 0 -36 -15t-15 -36v-103q0 -21 15 -36t36 -15h102q21 0 36 15t15 36v103q0 21 -15 36t-36 15v0zM563 154h-102q-21 0 -36 -15t-15 -37v-102q0 -21 15 -36t36 -15h102q21 0 36 15t15 36v102q0 22 -15 37t-36 15v0zM819 461h-102q-21 0 -36 -15t-15 -36v-103
q0 -21 15 -36t36 -15h102q21 0 36 15t15 36v103q0 21 -15 36t-36 15v0z" />
    <glyph glyph-name="uniE993" unicode="&#xe993;" 
d="M925 873q-23 23 -53 6.5t-103 -51.5q-97 -46 -221 -111t-233 -124.5t-184 -101l-75 -41.5l389 -56l56 -389l41.5 75t101 184t124.5 232.5t112 221.5q35 73 51 103t-6 52v0zM831 773l-282 -524l-29 238l311 286v0z" />
    <glyph glyph-name="uniE994" unicode="&#xe994;" 
d="M819 922h-614q-21 0 -36 -15t-15 -37v-819q0 -21 15 -36t36 -15h614q21 0 36 15t15 36v819q0 22 -15 37t-36 15v0zM768 102h-512v717h512v-717v0z" />
    <glyph glyph-name="uniE995" unicode="&#xe995;" 
d="M993 593l-381 102l-67 249q-4 16 -18.5 24t-30.5 3l-465 -124q-17 -5 -25.5 -19t-4.5 -30l166 -617q4 -15 18.5 -23t30.5 -4l185 50l-25 -94q-4 -16 4.5 -30t25.5 -18l415 -112q16 -4 30.5 4t19.5 23l152 568q4 15 -4.5 29.5t-25.5 18.5v0zM84 787l401 107l148 -554
l-401 -107l-148 554v0zM803 27l-349 96l27 102l200 54q16 4 25 18.5t5 29.5l-78 288l305 -83l-135 -505v0z" />
    <glyph glyph-name="uniE996" unicode="&#xe996;" 
d="M898 838q15 21 19.5 52.5l4.5 31.5h-820l4.5 -31.5t19.5 -52.5l335 -428v-308h-103q-76 0 -89 -51l-13 -51h512l-13 51t-89 51h-103v308l335 428v0zM481 666q0 34 24 58t58 24t58 -24t24 -58t-24 -58t-58 -24t-58 24t-24 58v0z" />
    <glyph glyph-name="uniE997" unicode="&#xe997;" 
d="M976 415l-163 406q-9 22 -29 35.5t-44 13.5h-456q-24 0 -44 -13.5t-29 -35.5l-163 -406q-11 -28 -14 -57.5t2 -59.5l30 -181q5 -28 27 -47t51 -19h736q29 0 51 19t27 47l30 181q5 30 2 59.5t-14 57.5v0zM868 192q-2 -16 -15 -27t-30 -11h-622q-17 0 -30 11t-15 27
l-19 113q-4 21 10 37t36 16h658q22 0 36 -16t10 -37l-19 -113v0z" />
    <glyph glyph-name="uniE998" unicode="&#xe998;" 
d="M522 944q-1 8 -10 8t-10 -8q-17 -136 -62.5 -226t-93 -161.5t-84.5 -140.5t-37 -164q0 -58 23 -109.5t62 -90t91.5 -61t110.5 -22.5t110 22.5t91.5 61t62.5 90t23 109.5q0 95 -37 164t-84.5 140.5t-93 161.5t-62.5 226v0zM479 542q-3 -9 -5 -17.5t-5 -17.5
q-15 -55 -29.5 -117t-14.5 -134q0 -39 -19 -54.5t-40 -15.5q-25 0 -42 17.5t-17 41.5q0 85 33 144t69 108q12 16 22 30.5t19 28.5q4 7 12.5 6.5t13.5 -6.5q2 -3 3 -7t0 -7v0z" />
    <glyph glyph-name="uniE999" unicode="&#xe999;" 
d="M899 848q-55 55 -92 59l-37 4l-657 -657l-52 -244l244 52l657 657l-3.5 36.5t-59.5 92.5v0zM291 91l-83 -18q-6 12 -14 23.5t-22 24.5q-13 13 -24.5 21t-22.5 14l18 84l24 24l29 -7t67 -45q38 -39 45 -68l7 -29l-24 -24v0z" />
    <glyph glyph-name="uniE99A" unicode="&#xe99a;" 
d="M748 350q0 -33 10 -47t34 -14q54 0 85.5 64.5t31.5 177.5q0 87 -29.5 151t-81 106.5t-120.5 63.5t-148 21q-81 0 -155.5 -27t-131.5 -80t-91 -131t-34 -181q0 -98 31 -173.5t88 -127t137.5 -77.5t179.5 -26q67 0 120 8.5t122 31.5l20 -82q-69 -22 -138 -30t-126 -8
q-129 0 -228.5 34.5t-167 97.5t-102 152.5t-34.5 199.5q0 111 38.5 202.5t106.5 157.5t162 102t205 36q115 0 203.5 -32.5t148 -88t89.5 -130.5t30 -160q0 -72 -12 -133.5t-41 -107t-77 -71.5t-119 -26q-65 0 -104.5 27t-45.5 84q-16 -64 -58.5 -87.5t-102.5 -23.5
q-40 0 -75.5 15.5t-62.5 46.5t-43 77.5t-16 109.5q0 62 14.5 112t42.5 85t69 54t94 19q57 0 92 -20.5t51 -55.5l36 65h103v-361v0v0zM597 512q0 50 -30.5 73t-61.5 23q-34 0 -65 -32t-31 -113q0 -65 26 -99.5t70 -34.5q30 0 61 21.5t31 75.5v86v0z" />
    <glyph glyph-name="uniE99B" unicode="&#xe99b;" 
d="M512 952q-102 0 -191.5 -38.5t-156 -105t-105.5 -156t-39 -191.5t39 -191.5t105.5 -156t156 -105.5t191.5 -39t191.5 39t156 105.5t105.5 156t39 191.5t-39 191.5t-105.5 156t-156 105t-191.5 38.5v0zM512 72q-81 0 -151.5 30.5t-123.5 83t-83.5 123.5t-30.5 152
q0 80 30.5 151t83.5 124t123.5 83.5t151.5 30.5t151.5 -30.5t123.5 -83.5t83.5 -124t30.5 -151q0 -81 -30.5 -152t-83.5 -123.5t-123.5 -83t-151.5 -30.5v0zM384 474q32 0 54.5 26t22.5 63t-22.5 63.5t-54.5 26.5t-54.5 -26.5t-22.5 -63.5t22.5 -63t54.5 -26v0zM640 474
q32 0 54.5 26t22.5 63t-22.5 63.5t-54.5 26.5t-54.5 -26.5t-22.5 -63.5t22.5 -63t54.5 -26v0zM734 392q-14 8 -29 3t-22 -19q-2 -3 -39 -42.5t-132 -39.5q-94 0 -131.5 39.5t-39.5 42.5q-7 14 -22 19t-29 -2t-19 -22.5t2 -29.5q2 -4 55 -63.5t184 -59.5q132 0 184.5 59.5
t54.5 63.5q7 14 2 29t-19 22v0z" />
    <glyph glyph-name="uniE99C" unicode="&#xe99c;" 
d="M512 952q-102 0 -191.5 -38.5t-156 -105t-105.5 -156t-39 -191.5t39 -191.5t105.5 -156t156 -105.5t191.5 -39t191.5 39t156 105.5t105.5 156t39 191.5t-39 191.5t-105.5 156t-156 105t-191.5 38.5v0zM512 72q-81 0 -151.5 30.5t-123.5 83t-83.5 123.5t-30.5 152
q0 80 30.5 151t83.5 124t123.5 83.5t151.5 30.5t151.5 -30.5t123.5 -83.5t83.5 -124t30.5 -151q0 -81 -30.5 -152t-83.5 -123.5t-123.5 -83t-151.5 -30.5v0zM640 653q-32 0 -54.5 -26.5t-22.5 -63.5t22.5 -63t54.5 -26t54.5 26t22.5 63t-22.5 63.5t-54.5 26.5v0zM384 474
q32 0 54.5 26t22.5 63t-22.5 63.5t-54.5 26.5t-54.5 -26.5t-22.5 -63.5t22.5 -63t54.5 -26v0zM666 346h-308q-15 0 -26.5 -11.5t-11.5 -27.5t11.5 -27t26.5 -11h308q15 0 26.5 11t11.5 27t-11 27.5t-27 11.5v0z" />
    <glyph glyph-name="uniE99D" unicode="&#xe99d;" 
d="M512 952q-102 0 -191.5 -38.5t-156 -105t-105.5 -156t-39 -191.5t39 -191.5t105.5 -156.5t156 -105.5t191.5 -38.5t191.5 38.5t156 105.5t105.5 156.5t39 191.5t-39 191.5t-105.5 156t-156 105t-191.5 38.5v0zM512 72q-81 0 -151.5 30.5t-123.5 83t-83.5 123.5t-30.5 152
q0 80 30.5 151t83.5 124t123.5 83.5t151.5 30.5t151.5 -30.5t123.5 -83.5t83.5 -124t30.5 -151q0 -81 -30.5 -152t-83.5 -123.5t-123.5 -83t-151.5 -30.5v0zM640 474q32 0 54.5 26t22.5 63t-22.5 63.5t-54.5 26.5t-54.5 -26.5t-22.5 -63.5t22.5 -63t54.5 -26v0zM384 474
q32 0 54.5 26t22.5 63t-22.5 63.5t-54.5 26.5t-54.5 -26.5t-22.5 -63.5t22.5 -63t54.5 -26v0zM512 397q-131 0 -184 -60t-55 -64q-7 -14 -2 -29t19 -22q4 -2 8.5 -3t8.5 -1q11 0 20.5 5.5t14.5 15.5l37 40.5t133 40.5q95 0 132 -39.5t38 -41.5q8 -14 23 -19.5t29 2.5
q14 7 19 22t-2 29q-2 4 -54.5 64t-184.5 60v0z" />
    <glyph glyph-name="uniE99E" unicode="&#xe99e;" 
d="M922 819h-490q-16 0 -37.5 -8t-33.5 -19l-348 -304q-13 -11 -13 -27t13 -27l348 -305q12 -11 33.5 -19t37.5 -8h490q42 0 72 30.5t30 72.5v512q0 42 -30 72t-72 30v0zM778 256l-131 131l-131 -131l-74 74l131 131l-131 131l74 74l131 -131l131 131l74 -74l-131 -131
l131 -131l-74 -74v0z" />
    <glyph glyph-name="uniE99F" unicode="&#xe99f;" 
d="M870 759l-161 124q-34 26 -76 20.5t-68 -39.5l-430 -558q-26 -33 -20.5 -75t39.5 -68l161 -124q34 -26 76 -20.5t68 38.5l430 558q26 34 20.5 76t-39.5 68v0zM438 130l-28 -35q-6 -8 -14.5 -12t-18.5 -4q-4 0 -11 1.5t-13 6.5l-162 125q-6 4 -10 11t-5 16q-1 8 1 15.5
t7 14.5l27 35q6 7 14.5 11.5t18.5 4.5q5 0 11.5 -2t13.5 -7l161 -124q7 -5 11 -12t5 -15t-1 -16t-7 -14v0z" />
    <glyph glyph-name="uniE9A0" unicode="&#xe9a0;" 
d="M768 205h-666v461h133l27 30t84 72h-295q-21 0 -36 -15t-15 -36v-563q0 -22 15 -37t36 -15h768q21 0 36 15t15 37v191l-102 -84v-56v0zM684 561v-182l340 266l-340 256v-160q-155 0 -238.5 -64t-122.5 -140.5t-45.5 -140l-6.5 -63.5q44 72 82.5 116.5t84 69t104 33.5
t142.5 9v0z" />
    <glyph glyph-name="uniE9A1" unicode="&#xe9a1;" 
d="M512 748q-126 0 -221.5 -39.5t-160 -89.5t-97.5 -96.5t-33 -61.5t33 -61.5t97.5 -96.5t160 -89.5t221.5 -39.5t221.5 39.5t160 89.5t97.5 96.5t33 61.5t-33 61.5t-97.5 96.5t-160 89.5t-221.5 39.5v0zM512 240q-47 0 -88.5 17.5t-72.5 47.5t-49 70t-18 86q0 45 18 85.5
t49 70.5t72.5 47t88.5 17t88.5 -17t72.5 -47t49 -70.5t18 -85.5q0 -46 -18 -86t-49 -70t-72.5 -47.5t-88.5 -17.5v0zM512 461q-16 17 4.5 63.5t-4.5 46.5q-47 0 -80.5 -32.5t-33.5 -77.5q0 -46 33.5 -78t80.5 -32t80.5 32t33.5 78q0 21 -50.5 3t-63.5 -3v0z" />
    <glyph glyph-name="uniE9A2" unicode="&#xe9a2;" 
d="M218 -29q12 38 29.5 92.5t41.5 130.5q104 17 161 19.5t123 120.5q-54 -16 -105 15.5t-48 52.5q2 10 35.5 11t82.5 12t105.5 41t105.5 98q-122 -27 -165 9.5t-28 45.5q18 10 51.5 14t72 10.5t77 19.5t66.5 41q29 29 41.5 84t0.5 80q-15 30 -83.5 64t-117.5 30
q-24 -2 -53.5 -40.5t-57 -84t-50.5 -82.5t-34 -36q-23 1 -23 66.5t39 138.5q-41 -18 -102.5 -67t-85.5 -98q-22 -45 -24 -113t2.5 -132t9.5 -111.5t-3 -50.5q-8 -4 -23.5 16.5t-32 51t-32 64t-23.5 57.5q-21 -72 -14.5 -147t68.5 -170q-24 -63 -36.5 -127t-14.5 -101
q-1 -29 19 -35.5t25 10.5v0z" />
    <glyph glyph-name="uniE9A3" unicode="&#xe9a3;" 
d="M969 687q-179 -261 -257 -296.5t-130 0.5t-116 66.5t-216 -96.5l92 -361h-103l-188 738l95 34q170 124 234 96.5t117 -92.5t141.5 -110.5t308.5 42.5q14 5 22 -2t0 -19v0z" />
    <glyph glyph-name="uniE9A4" unicode="&#xe9a4;" 
d="M348 0q-3 3 21.5 60.5t55 127t56 129.5t23.5 66q-2 5 -32 18t-65.5 28t-65.5 29.5t-34 25.5q-3 10 53 81t125 151t128 144.5t63 61.5q3 -3 -21.5 -61.5t-55 -128.5t-56 -129t-23.5 -64q2 -4 32 -16.5l66 -27.5t66.5 -30.5t32.5 -26.5t-54 -82t-124.5 -150.5
t-127.5 -143.5t-63 -62v0z" />
    <glyph glyph-name="uniE9A5" unicode="&#xe9a5;" 
d="M876 825q-64 64 -133 86.5t-95 -3.5l-138 -138q-15 -16 -26 -62.5t-4 -99.5l-418 -418q-19 -18 -6 -57.5t51 -76.5q37 -38 76.5 -51t57.5 6l418 417q53 -6 99.5 5t62.5 26l138 138q26 26 4 95t-87 133v0zM417 408q-15 14 -10.5 38t24.5 44t44 24.5t38 -10.5
q15 -14 11 -38.5t-24 -44.5t-44.5 -24t-38.5 11v0zM762 711q-49 50 -65 103t-12 57q5 5 56 -13t101 -67q50 -50 67.5 -101.5t12.5 -55.5q-4 -4 -57 11.5t-103 65.5v0z" />
    <glyph glyph-name="uniE9A6" unicode="&#xe9a6;" 
d="M94 210q20 -14 53 21.5t47 25.5q13 -10 -12.5 -51.5t-14.5 -49.5q11 -9 46.5 25.5t48.5 24.5t-12 -52t-11 -53q14 -10 49 24.5t46 26.5q11 -9 -12 -52.5t-10 -52.5q13 -10 46 26t44 27q11 -8 -13 -51t-5 -57q10 -7 54 63.5t93 158.5t88.5 162.5l39.5 74.5l-198 150
l-61 -58t-132 -129.5t-127 -133.5t-47 -70v0zM667 930l-172 -264l211 -159l225 217q-10 29 -40.5 63.5t-69 65t-80 52.5t-74.5 25v0z" />
    <glyph glyph-name="uniE9A7" unicode="&#xe9a7;" 
d="M942 829q-4 17 -22 29t-40 12h-736q-22 0 -40 -12t-22 -29l-11 -61h882l-11 61v0zM994 717h-964q-13 0 -22 -10t-7 -23l47 -597q1 -15 12.5 -25.5t26.5 -10.5h850q15 0 26.5 10.5t12.5 25.5l47 597q2 13 -7 23t-22 10v0zM637 544q20 0 34 -14t14 -34t-14 -34t-34 -14
t-34 14t-14 34t14 34t34 14v0zM282 256l127 293l145 -235l124 62l64 -120h-460v0z" />
    <glyph glyph-name="uniE9A8" unicode="&#xe9a8;" 
d="M942 829q-4 17 -22 29t-40 12h-736q-22 0 -40 -12t-22 -29l-11 -61h882l-11 61v0zM994 717h-964q-13 0 -22 -10t-7 -23l47 -597q1 -15 12.5 -25.5t26.5 -10.5h850q15 0 26.5 10.5t12.5 25.5l47 597q2 13 -7 23t-22 10v0zM611 332q-4 -10 -8 -10.5t-2 10.5q6 27 -2.5 72.5
t-50.5 52.5v-169q0 -26 -13.5 -47t-44.5 -31t-60.5 -1t-37.5 31t7.5 45.5t46.5 34.5q17 6 35 7.5t31 -4.5v240h36q0 -63 62 -85t1 -146v0z" />
    <glyph glyph-name="uniE9A9" unicode="&#xe9a9;" 
d="M942 829q-4 17 -22 29t-40 12h-736q-22 0 -40 -12t-22 -29l-11 -61h882l-11 61v0zM994 717h-964q-13 0 -22 -10t-7 -23l47 -597q1 -15 12.5 -25.5t26.5 -10.5h850q15 0 26.5 10.5t12.5 25.5l47 597q2 13 -7 23t-22 10v0zM410 256v256l224 -128l-224 -128v0z" />
    <glyph glyph-name="uniE9AA" unicode="&#xe9aa;" 
d="M942 727q-4 17 -22 29t-40 12h-348q-22 0 -48 10.5t-41 25.5l-30 30q-15 15 -41 25.5t-47 10.5h-167q-21 0 -38 -14.5t-19 -35.5l-15 -154h867l-11 61v0zM994 614h-964q-13 0 -22 -9.5t-7 -22.5l47 -495q1 -15 12.5 -25.5t26.5 -10.5h850q15 0 26.5 10.5t12.5 25.5
l47 495q2 13 -7 22.5t-22 9.5v0z" />
    <glyph glyph-name="uniE9AB" unicode="&#xe9ab;" 
d="M614 365v-223l359 342l-359 337v-204q-168 0 -277 -78t-172.5 -171.5t-88.5 -171l-25 -77.5q48 84 107.5 133t130.5 74t152.5 32t172.5 7v0z" />
    <glyph glyph-name="uniE9AC" unicode="&#xe9ac;" 
d="M512 922q-94 0 -170 -13.5t-129 -35t-82 -49t-29 -56.5v-102q0 -18 48 -68t106 -103.5t106 -95l48 -41.5v-307q0 -26 32 -38.5t70 -12.5t70 12.5t32 38.5v307l48 41.5t106 95t106 103.5t48 68v102q0 29 -29 56.5t-82 49t-129 35t-170 13.5v0zM512 659q-69 0 -126.5 11
t-99.5 26.5t-65 31t-23 25.5t23 25.5t65 31t99.5 26.5t126.5 11t126.5 -11t99.5 -26.5t65 -31t23 -25.5q0 -9 -23 -25t-65 -31.5t-99.5 -26.5t-126.5 -11v0z" />
    <glyph glyph-name="uniE9AD" unicode="&#xe9ad;" 
d="M996 494q-17 94 -43 157t-54 100.5t-55.5 53t-47.5 15.5q-63 0 -106.5 -31.5t-177.5 -32.5q-134 1 -177.5 32.5t-106.5 31.5q-20 0 -47.5 -15.5t-55.5 -53t-54 -100.5t-43 -157q-9 -54 -17.5 -117.5t-10 -119.5t7 -97.5t33.5 -50.5q62 -24 98 20.5t104 95.5q70 51 120 68
t149 17t149 -17t120 -68q68 -51 104 -95.5t98 -20.5q25 9 33.5 50.5t7 97.5t-10 119.5t-17.5 117.5v0zM307 461q-42 0 -72 30t-30 72q0 43 30 73t72 30q43 0 73 -30t30 -73q0 -42 -30 -72t-73 -30v0zM666 461q-22 0 -37 15t-15 36t15 36t37 15q21 0 36 -15t15 -36t-15 -36
t-36 -15v0zM768 563q-21 0 -36 15t-15 36q0 22 15 37t36 15t36 -15t15 -37q0 -21 -15 -36t-36 -15v0z" />
    <glyph glyph-name="uniE9AE" unicode="&#xe9ae;" 
d="M416 276q-26 -45 -12.5 -81.5t50.5 -57.5q36 -22 74.5 -15.5t64.5 52.5q14 23 55.5 121t85 207t75 198t23.5 93q-7 4 -68 -67.5t-134 -163.5t-137 -177.5t-77 -108.5v0zM512 666q17 0 33.5 -1.5t32.5 -4.5q16 21 34.5 43.5t37.5 44.5q-33 10 -67.5 15t-70.5 5
q-108 0 -201.5 -42.5t-162.5 -117t-108.5 -175t-39.5 -216.5q0 -14 0.5 -28.5t2.5 -28.5q1 -21 17.5 -34.5t37.5 -11.5t34.5 18t12.5 37q-2 12 -2.5 24t-0.5 24q0 94 32 176t87 142.5t130 95.5t161 35v0zM882 602q-11 -29 -22 -57.5t-21 -54.5q39 -56 61 -125.5t22 -147.5
q0 -12 -1 -24.5t-2 -24.5q-2 -21 12 -37t35 -18h2h2q20 0 35 13t16 33q2 14 2.5 28.5t0.5 29.5q0 56 -10 109.5t-28 102.5t-44.5 92.5t-59.5 80.5v0z" />
    <glyph glyph-name="uniE9AF" unicode="&#xe9af;" 
d="M512 952q-102 0 -191.5 -38.5t-156 -105.5t-105.5 -156.5t-39 -190.5q0 -102 39 -191.5t105.5 -156t156 -105.5t191.5 -39t191.5 39t156 105.5t105.5 156t39 191.5q0 101 -39 190.5t-105.5 156.5t-156 105.5t-191.5 38.5v0zM931 461q0 -72 -23 -137t-64 -118
q-11 9 -19 31t3 47q12 25 15.5 72t0.5 70t-16.5 63.5t-45.5 41.5q-32 0 -55.5 13.5t-42.5 51.5q-40 80 23 110.5t23 74.5q-11 13 -52.5 -13t-49.5 58q-1 6 4 14.5t13 17.5q62 -21 114.5 -59.5t91 -90.5t59.5 -115t21 -132v0zM454 876q-7 -15 -23.5 -23t-28.5 -19
q-26 -24 -40.5 -29.5t-28.5 -28.5t-47 -51.5t-33 -44.5q0 -17 17 -32t29 -11t37 3.5t43 -7.5q9 -3 40.5 -8.5t62 -21.5t47 -48t-5.5 -88q-13 -35 -57 -47t-59 -71q-3 -8 -8.5 -36t-6.5 -41q-1 -18 5.5 -68t-11.5 -50t-53.5 44t-35.5 55t-8.5 45.5t-8.5 68.5t-39 47t-39 59
q0 41 20 64.5t13 43.5q-7 19 -49 23.5t-65 6.5q20 53 53 97.5t76.5 79.5t95 57.5t108.5 30.5v0zM380 63q19 10 26.5 20.5t24.5 10.5q19 1 36.5 6.5t39.5 10.5q20 4 52 18.5t62 17.5q27 2 67.5 -4.5t54.5 -31.5q-50 -33 -108.5 -51t-122.5 -18q-35 0 -68 5.5t-64 15.5v0z" />
    <glyph glyph-name="uniE9B0" unicode="&#xe9b0;" 
d="M169 346q18 -72 48.5 -110.5t106.5 -71.5q75 -33 116.5 -62.5t71.5 -29.5t70 26.5t115 59.5q76 33 78 57t20 97l-283 -138l-343 172v0zM999 597l-426 239q-25 14 -61 14t-61 -14l-426 -239q-25 -14 -25 -34t25 -34l426 -238q25 -15 61 -15t61 15l275 154l-299 70
q-8 -2 -17.5 -3.5t-19.5 -1.5q-40 0 -68.5 17t-28.5 41t28.5 41t68.5 17q31 0 56 -10.5t35 -26.5l317 -104l79 44q25 14 25 34t-25 34v0zM869 145q-3 -15 32 -26.5t40 31.5q22 195 0.5 265l-21.5 70l-72 -40l25.5 -59t-4.5 -241v0z" />
    <glyph glyph-name="uniE9B1" unicode="&#xe9b1;" 
d="M410 768h-154q-21 0 -36 -15t-15 -36v-154q0 -21 15 -36t36 -15h154q21 0 36 15t15 36v154q0 21 -15 36t-36 15v0zM768 768h-154q-21 0 -36 -15t-15 -36v-154q0 -21 15 -36t36 -15h154q21 0 36 15t15 36v154q0 21 -15 36t-36 15v0zM410 410h-154q-21 0 -36 -15t-15 -37
v-153q0 -21 15 -36t36 -15h154q21 0 36 15t15 36v153q0 22 -15 37t-36 15v0zM768 410h-154q-21 0 -36 -15t-15 -37v-153q0 -21 15 -36t36 -15h154q21 0 36 15t15 36v153q0 22 -15 37t-36 15v0z" />
    <glyph glyph-name="uniE9B2" unicode="&#xe9b2;" 
d="M512 952q-102 0 -191.5 -38.5t-156 -105t-105.5 -156t-39 -191.5t39 -191.5t105.5 -156.5t156 -105.5t191.5 -38.5t191.5 38.5t156 105.5t105.5 156.5t39 191.5t-39 191.5t-105.5 156t-156 105t-191.5 38.5v0zM563 76v231h-102v-231q-65 8 -122.5 37t-101.5 73t-73 101
t-37 123h231v102h-231q8 65 37 122t73 101.5t101.5 73.5t122.5 37v-232h102v232q65 -9 122.5 -37.5t101.5 -73t73 -101.5t37 -122h-231v-102h231q-8 -66 -37 -123t-73 -101t-101.5 -73t-122.5 -37v0z" />
    <glyph glyph-name="uniE9B3" unicode="&#xe9b3;" 
d="M918 86q-2 -6 -7.5 -12.5t-14.5 -9.5q-3 -1 -47.5 -13.5t-97 -28t-97 -28.5t-47.5 -13q-18 -5 -30.5 -2.5t-21.5 10.5q-6 5 -43.5 28.5t-98 51t-140 50.5t-170.5 28q-20 1 -7.5 50.5t68.5 49.5q19 0 52.5 -5.5t68 -11t62.5 -7.5t34 5q11 10 8.5 71t-45.5 169v0l-117 288
q-8 21 0.5 41t29.5 29q20 8 40.5 -0.5t28.5 -29.5l14.5 -36t33 -80.5t34.5 -85.5t20 -50q7 -18 16 -25t19 -4q9 4 11 11.5t-3 25.5l-105 308q-7 21 2.5 41t30.5 27t41 -2.5t27 -30.5l100 -294q6 -19 13.5 -28t19.5 -5q6 3 6.5 12t-1.5 17l-70 281q-5 21 6.5 40t32.5 24
q22 6 41 -5.5t24 -33.5l65 -258q7 -28 14.5 -39t18.5 -9q11 3 12.5 11t-0.5 16q-2 9 -9 45t-15 75t-14 70.5l-6 31.5q-4 19 7 36t31 21q19 4 36 -7t21 -31l48 -241v0v0v0l30 -145q4 -20 10 -39.5t13 -38.5q20 -56 27 -107.5t5.5 -94t-7 -72.5t-8.5 -41v0z" />
    <glyph glyph-name="uniE9B4" unicode="&#xe9b4;" 
d="M880 760q-32 29 -72.5 44t-82.5 15t-82.5 -15t-72.5 -44l-58 -53l-58 53q-32 29 -72.5 44t-82.5 15t-82.5 -15t-72.5 -44q-36 -33 -54 -74.5t-18 -85t18 -85.5t54 -75l368 -338l368 338q36 33 54 75t18 85.5t-18 85t-54 74.5v0zM826 493l-314 -293l-314 293
q-23 22 -33 49.5t-10 57.5t7.5 55.5t30.5 46.5q21 20 48.5 30t57.5 10t57.5 -15.5t47.5 -34.5l108 -93l107 93q21 19 48.5 34.5t57.5 15.5t57.5 -10t48.5 -30q23 -21 30.5 -46.5t7.5 -55.5t-10 -57.5t-33 -49.5v0z" />
    <glyph glyph-name="uniE9B5" unicode="&#xe9b5;" 
d="M880 760q-32 30 -72.5 44.5t-82.5 14.5t-82.5 -14.5t-72.5 -44.5l-58 -53l-58 53q-32 30 -72.5 44.5t-82.5 14.5t-82.5 -14.5t-72.5 -44.5q-36 -33 -54 -74.5t-18 -85t18 -85.5t54 -75l368 -338l368 338q36 33 54 75t18 85.5t-18 85t-54 74.5v0z" />
    <glyph glyph-name="uniE9B6" unicode="&#xe9b6;" 
d="M512 952q-102 0 -191.5 -38.5t-156 -105t-105.5 -156t-39 -191.5t39 -191.5t105.5 -156t156 -105.5t191.5 -39t191.5 39t156 105.5t105.5 156t39 191.5t-39 191.5t-105.5 156t-156 105t-191.5 38.5v0zM504 174h-2q-30 1 -49 21t-18 49q0 29 19.5 48t48.5 19h3
q31 -1 49.5 -20.5t18.5 -50.5q-1 -29 -20.5 -47.5t-49.5 -18.5v0zM673 509q-7 -10 -22 -23t-34 -28l-29 -20q-12 -9 -19 -17.5t-10 -17.5q-2 -7 -3 -11.5t-2 -17.5v-5h-109v9q1 29 3.5 47.5t14.5 32.5q19 21 49.5 42.5t32.5 22.5q6 5 11 10t8 10q9 12 13 22t4 19
q0 13 -3.5 24.5t-11.5 22.5q-7 10 -20.5 15t-33.5 5t-33.5 -6t-21.5 -19t-12.5 -27t-4.5 -28v-5h-113v5q2 52 20.5 89.5t53.5 59.5q21 14 48 21t58 7q41 0 75.5 -10t62.5 -30q27 -20 41 -49.5t14 -68.5q0 -22 -7 -42.5t-20 -38.5v0z" />
    <glyph glyph-name="uniE9B7" unicode="&#xe9b7;" 
d="M721 858q-43 32 -98 48t-122 16q-50 0 -92.5 -11.5t-76.5 -33.5q-55 -35 -84 -94t-33 -142h169q0 24 7.5 47.5t21.5 45.5q14 23 38 34t58 11t58 -9t37 -27t19.5 -38.5t6.5 -42.5q0 -19 -8.5 -37t-20.5 -34q-6 -9 -14.5 -17.5t-19.5 -16.5l-50.5 -35.5t-81.5 -71.5
q-17 -20 -21.5 -51.5t-5.5 -75.5q0 -3 2.5 -8t13.5 -5h66.5h65.5q9 0 12 5.5t3 8.5q1 16 3 26t5 19q5 18 19 33t31 28l46 32q32 25 56 45t35 36q19 26 31 58t12 70q0 62 -22 109t-66 78v0zM499 209q-44 1 -75.5 -27t-33.5 -75q-1 -48 29 -77t74 -30q45 -1 76.5 26t32.5 75
q2 47 -28 76.5t-75 31.5v0z" />
    <glyph glyph-name="uniE9B8" unicode="&#xe9b8;" 
d="M956 410h-86v-308q0 -17 -10 -34t-41 -17h-205v307h-204v-307h-205q-31 0 -41 17t-10 34v308h-86q-23 0 -21 11t18 27l411 411q7 8 16.5 12t19.5 4t19.5 -4t16.5 -12l411 -411q16 -16 18 -27t-21 -11v0z" />
    <glyph glyph-name="uniE9B9" unicode="&#xe9b9;" 
d="M799 739v101v19q0 15 -22.5 34.5t-61.5 37.5t-91.5 30t-111.5 12t-111.5 -12t-91.5 -30t-61.5 -37.5t-22.5 -34.5v-19v-101q0 -42 31 -79.5t68.5 -72t68.5 -66t31 -60.5t-31 -60.5t-68.5 -66t-68.5 -72.5t-31 -79v-101v-19q0 -15 22.5 -35t61.5 -37.5t91.5 -29.5
t111.5 -12t111.5 12t91.5 29.5t61.5 37.5t22.5 35v19v101q0 41 -31 79t-68.5 72.5t-68.5 66t-31 60.5t31 60.5t68.5 66t68.5 72t31 79.5v0zM304 854q27 16 78.5 35.5t132.5 19.5t143 -27.5l62 -27.5q5 -4 18 -13.5t-2 -18.5q-32 -19 -91.5 -35.5t-132.5 -16.5t-131 18
t-90 37q-15 9 -1 19l14 10v0zM538 461q0 -46 32 -80t73 -73q29 -29 61 -64t32 -61v-68q-18 10 -51.5 20t-66 24t-56.5 34.5t-24 49.5q0 31 -26 31t-26 -31q0 -29 -24 -49.5t-56.5 -34.5t-66 -24t-51.5 -20v68q0 26 32 61t61 64q41 39 73 73t32 80t-32 79.5t-73 73.5
q-29 28 -61 63.5t-32 61.5l-3 51q40 -22 99.5 -39t127.5 -17t128 17t99 39l-3 -51q0 -26 -32 -61.5t-61 -63.5q-41 -40 -73 -73.5t-32 -79.5v0z" />
    <glyph glyph-name="uniE9BA" unicode="&#xe9ba;" 
d="M922 819h-820q-21 0 -36 -15t-15 -36v-614q0 -22 15 -37t36 -15h820q21 0 36 15t15 37v614q0 21 -15 36t-36 15v0zM678 640q27 0 45.5 -19t18.5 -45t-18.5 -45t-45.5 -19q-26 0 -45 19t-19 45t19 45t45 19v0zM205 256l169 390l193 -312l166 82l86 -160h-614v0z" />
    <glyph glyph-name="uniE9BB" unicode="&#xe9bb;" 
d="M973 870h-922q-21 0 -36 -15t-15 -36v-717q0 -21 15 -36t36 -15h922q21 0 36 15t15 36v717q0 21 -15 36t-36 15v0zM922 154h-820v614h820v-614v0zM733 416l-165 -82l-194 312l-169 -390h614l-86 160v0zM678 512q27 0 45.5 19t18.5 45t-18.5 45t-45.5 19q-26 0 -45 -19
t-19 -45t19 -45t45 -19v0z" />
    <glyph glyph-name="uniE9BC" unicode="&#xe9bc;" 
d="M877 657l-105 288q-6 16 -20.5 23.5t-30.5 2.5l-696 -255q-15 -5 -21.5 -20t-0.5 -31l110 -305v163q0 56 38.5 95t92.5 39h184l219 154l127 -154h103v0zM985 563h-741q-16 0 -27.5 -11.5t-11.5 -28.5v-482q0 -17 11.5 -29t27.5 -12h741q16 0 27.5 12t11.5 29v482
q0 17 -11.5 28.5t-27.5 11.5v0zM922 102h-615v103l102 206l142 -176l133 136l170 62l68 -177v-154v0z" />
    <glyph glyph-name="uniE9BD" unicode="&#xe9bd;" 
d="M986 484q-15 16 -71 71.5t-89 88.5q-10 10 -24 16t-29 6h-522q-15 0 -29 -6t-24 -16q-33 -33 -89 -88.5t-71 -71.5q-18 -20 -27 -36.5t-5 -37.5t14.5 -81t14.5 -76q3 -16 22.5 -32t40.5 -16h828q21 0 40.5 16t22.5 32q4 16 14.5 76t14.5 81t-5 37.5t-27 36.5v0zM718 461
q-4 0 -7.5 -2t-5.5 -5l-41 -96h-304l-41 96q-2 3 -5.5 5t-6.5 2h-180l103 102h564l103 -102h-179v0z" />
    <glyph glyph-name="uniE9BE" unicode="&#xe9be;" 
d="M814 686q-40 0 -81 -10.5t-80 -30t-75 -47t-66 -61.5q-30 34 -66 61.5t-75 47t-80 30t-81 10.5q-38 0 -75.5 -12t-67.5 -38.5t-48.5 -69.5t-18.5 -105t18.5 -105t48.5 -70t67.5 -38.5t75.5 -11.5v0q40 0 81 10.5t80 30t75 47t66 61.5q30 -34 65.5 -61.5t75 -47t80.5 -30
t81 -10.5q38 0 75.5 11.5t67.5 38.5t48.5 70t18.5 105t-18.5 105t-48.5 69.5t-67.5 38.5t-75.5 12v0zM210 326q-58 0 -88 34t-30 101t30 101t88 34q64 0 132 -37.5t114 -97.5q-46 -60 -114 -97.5t-132 -37.5v0zM814 326q-64 0 -132 37.5t-114 97.5q46 60 114 97.5t132 37.5
q58 0 88 -34t30 -101t-30 -101t-88 -34v0z" />
    <glyph glyph-name="uniE9BF" unicode="&#xe9bf;" 
d="M512 952q-102 0 -191.5 -38.5t-156 -105t-105.5 -156t-39 -191.5t39 -191.5t105.5 -156.5t156 -105.5t191.5 -38.5t191.5 38.5t156 105.5t105.5 156.5t39 191.5t-39 191.5t-105.5 156t-156 105t-191.5 38.5v0zM558 775q36 0 49 -18t13 -42q0 -29 -22.5 -52.5t-63.5 -23.5
q-34 0 -50.5 16t-15.5 44q0 24 21.5 50t68.5 26v0zM435 166q-24 0 -37.5 21t3.5 87l38 154q5 19 5.5 27t-5.5 8q-7 0 -33 -10.5t-45 -23.5l-16 27q60 50 120.5 78t89.5 28q25 0 30 -27t-8 -72l-43 -163q-5 -21 -3.5 -29.5t7.5 -8.5q7 0 28 9t45 27l19 -24q-58 -58 -114 -83
t-81 -25v0z" />
    <glyph glyph-name="uniE9C0" unicode="&#xe9c0;" 
d="M637 973q51 0 76.5 -30t25.5 -70q0 -51 -39.5 -90t-97.5 -39q-48 0 -75 27t-26 75q0 40 34 83.5t102 43.5v0zM425 -51q-40 0 -62 35t6 145l63 261q8 31 8.5 44.5t-8.5 13.5q-13 0 -55 -18t-73 -39l-28 45q50 42 101.5 75t98 56t85.5 35t64 12q40 0 48 -45t-12 -121
l-71 -274q-10 -36 -7 -50.5t12 -14.5q12 0 47.5 15.5t74.5 46.5l31 -42q-49 -49 -97.5 -83t-92 -55.5t-78 -31.5t-55.5 -10v0z" />
    <glyph glyph-name="uniE9C1" unicode="&#xe9c1;" 
d="M906 731q-10 57 -39 103.5t-71.5 77.5t-94 43.5t-106.5 2.5t-103.5 -36t-82.5 -65t-50.5 -88.5t-6.5 -106.5q4 -25 14.5 -59.5t24.5 -62.5l-265 -395q-8 -11 -11.5 -28t-1.5 -30l17 -101q3 -13 13.5 -21t22.5 -6l78 15q13 2 26.5 11.5t20.5 21.5l105 169l1 1l71 13
l122 199q30 -5 68.5 -4t63.5 5q55 11 94 44t62.5 80t30 103.5t-2.5 113.5v0zM776 653q-30 -45 -62.5 -26.5t-75.5 50.5q-43 31 -71 57t2 71t81.5 54.5t94.5 -22.5q43 -31 52.5 -85t-21.5 -99v0z" />
    <glyph glyph-name="uniE9C2" unicode="&#xe9c2;" 
d="M952 768h-880q-30 0 -51 -21t-21 -51v-471q0 -29 21 -50t51 -21h880q30 0 51 21t21 50v471q0 30 -21 51t-51 21v0zM563 666h103v-103h-103v103v0zM717 512v-102h-103v102h103v0zM410 666h102v-103h-102v103v0zM563 512v-102h-102v102h102v0zM256 666h102v-103h-102v103v0
zM410 512v-102h-103v102h103v0zM102 666h103v-103h-103v103v0zM256 512v-102h-102v102h102v0zM205 256h-103v102h103v-102v0zM768 256h-512v102h512v-102v0zM922 256h-103v102h103v-102v0zM768 410v102h102v-102h-102v0zM922 563h-205v103h205v-103v0z" />
    <glyph glyph-name="uniE9C3" unicode="&#xe9c3;" 
d="M841 205q-39 98 -79.5 164t-73 115.5t-53.5 91t-21 90.5v153h26q11 0 18.5 7.5t7.5 18.5v51q0 11 -7.5 18.5t-18.5 7.5h-256q-11 0 -18.5 -7.5t-7.5 -18.5v-51q0 -11 7.5 -18.5t18.5 -7.5h26v-153q0 -49 -21 -90.5t-53.5 -91t-73 -115.5t-79.5 -164q-25 -63 -16 -134
t345 -71t345 71t-16 134v0zM759 115q-27 -8 -85 -15.5t-162 -7.5t-162 7.5t-85 15.5q-9 3 -12.5 12.5t-0.5 19.5q9 26 26 68t47 92q36 61 72.5 64.5t72.5 -16.5t70.5 -46.5t65.5 -26.5q63 0 66 33t27 -8q30 -50 47 -92t26 -68q3 -10 -0.5 -19.5t-12.5 -12.5v0z" />
    <glyph glyph-name="uniE9C4" unicode="&#xe9c4;" 
d="M251 960q-54 11 -100 -19.5t-57 -84.5q-21 -104 -32 -201.5t-11 -193.5t11 -193.5t32 -202.5q9 -47 46.5 -76.5t84.5 -29.5q6 0 12.5 0.5t13.5 2.5q54 10 85 55.5t20 99.5q-19 93 -28.5 177t-9.5 166.5t9.5 167t28.5 177.5q11 53 -20 98.5t-85 56.5v0zM870 870h-438
q3 -18 3 -36.5t-4 -36.5q-18 -91 -27 -173.5t-9 -163t9 -162.5t27 -173q4 -19 4 -37.5t-3 -36.5h438q43 0 73 30t30 73v614q0 42 -30 72t-73 30v0zM614 230q-31 0 -53.5 22.5t-22.5 54.5t22.5 54.5t53.5 22.5q32 0 54.5 -22.5t22.5 -54.5t-22.5 -54.5t-54.5 -22.5v0z
M870 512h-358v205h358v-205v0z" />
    <glyph glyph-name="uniE9C5" unicode="&#xe9c5;" 
d="M1011 414q-24 66 -87 103t-151 37h-7h-7l-1 105l27.5 5t61 10.5t62 10.5t30.5 5q4 1 5 4.5t1 7.5q-1 4 -5 25t-5 25q-1 5 -4 5.5t-7 0.5q-2 -1 -28 -4.5t-57 -8t-56 -8l-25 -3.5l-0.5 51t-0.5 55q0 5 -2.5 6.5t-7.5 1.5h-26h-26q-4 -1 -6.5 -2.5t-1.5 -5.5q0 -4 0.5 -61
l0.5 -57l-24.5 -4.5t-54 -9.5t-55 -9.5t-27.5 -4.5q-3 0 -5.5 -2t-1.5 -5q0 -4 4.5 -30.5t5.5 -29.5t3 -5t7 -1q4 1 77 13.5l73 12.5l1 -103q-41 -11 -69.5 -30t-45.5 -37q-30 -31 -46 -70.5t-16 -81.5q0 -61 33.5 -96t85.5 -42q61 -7 110 18t86 64t62 83.5t38 76.5
q21 -29 23.5 -69t-11.5 -82t-44.5 -83t-75.5 -72l-2.5 -5t1.5 -6q2 -3 15 -19t16 -20q3 -3 7.5 -2.5t5.5 1.5q49 33 83.5 75t54 87.5t22.5 92t-13 87.5v0zM633 251q-37 5 -42.5 29.5t-5.5 44.5q0 30 12 59.5t33 51.5q13 13 28.5 23.5t34.5 17.5l4 -219q-15 -5 -31 -7t-33 0
v0zM757 279l3 211h6h7q29 0 55 -5t41 -13q8 -4 -0.5 -27.5t-25.5 -53.5t-40 -61t-46 -51v0zM299 672q-1 4 -3.5 5.5t-6.5 1.5h-100q-3 0 -5.5 -1.5t-4.5 -5.5q-8 -25 -36.5 -116t-60 -190.5t-56.5 -178.5t-26 -80q0 -2 0.5 -3t3.5 -1h88q3 0 4.5 1t1.5 2t8.5 28t18 58.5
t17.5 57.5l8 26h179l8 -26t17.5 -57.5t17.5 -58.5t8 -28l2 -2t4 -1h89q3 0 3.5 1t-0.5 3q0 1 -25 80t-56.5 178.5t-60.5 190.5t-37 116v0zM165 348l74 269l74 -269h-148v0z" />
    <glyph glyph-name="uniE9C6" unicode="&#xe9c6;" 
d="M1011 172q-9 15 -49 75l-40 60v461q0 42 -30.5 72t-72.5 30h-614q-42 0 -72.5 -30t-30.5 -72v-461l-40 -60t-49 -75q-10 -14 -11.5 -23.5t-1.5 -20.5v-26q0 -19 16 -35t35 -16h922q19 0 35 16t16 35v26q0 11 -1.5 20.5t-11.5 23.5v0zM358 154l31 51h246l31 -51h-308v0z
M819 358h-614v410h614v-410v0z" />
    <glyph glyph-name="uniE9C7" unicode="&#xe9c7;" 
d="M974 789q-84 -49 -129 -119.5t-77.5 -144.5t-65.5 -142.5t-91 -114.5q-44 -34 -95.5 -44.5t-102.5 -7t-98.5 17.5t-83.5 28l-38 -54.5t-73 -136.5q-12 -28 -47 -8.5t-26 43.5q58 147 170 257.5t223.5 184.5t195 111l83.5 37l-61 -3t-152.5 -30t-198.5 -89.5t-199 -182.5
q-2 28 -2.5 75.5t15 102.5t52 112t107.5 102q96 62 224 75t239 1.5t181 -35t50 -35.5v0z" />
    <glyph glyph-name="uniE9C8" unicode="&#xe9c8;" 
d="M51 358v359h154v-307h512v153l256 -230l-256 -231v154h-563q-43 0 -73 30t-30 72v0z" />
    <glyph glyph-name="uniE9C9" unicode="&#xe9c9;" 
d="M973 512v-358h-154v307h-512v-154l-256 231l256 230v-154h563q43 0 73 -30t30 -72v0z" />
    <glyph glyph-name="uniE9CA" unicode="&#xe9ca;" 
d="M860 808q-72 72 -163 108t-185 36t-185 -36t-162 -108q-72 -72 -108 -162.5t-36.5 -185t35.5 -185t108 -162.5t163 -108t185 -36t185 36t163 108t108 162.5t36 185t-36 185t-108 162.5v0zM345 294q-34 35 -51.5 78.5t-17.5 88.5t17.5 88.5t51.5 77.5q35 35 78.5 52
t88.5 17t88.5 -17t78.5 -52q34 -34 51.5 -77.5t17.5 -88.5t-17.5 -88.5t-51.5 -78.5q-35 -34 -78.5 -51.5t-88.5 -17.5t-88.5 17.5t-78.5 51.5v0zM786 313q37 69 37 147.5t-37 147.5l91 49q25 -45 37.5 -95t12.5 -101t-12.5 -101t-37.5 -96l-91 49v0zM709 826l-50 -91
q-69 37 -147 37t-147 -37l-50 91q46 25 96 37t101 12t101 -12t96 -37v0zM147 657l91 -49q-37 -69 -37 -147t37 -148l-91 -49q-25 46 -37.5 96t-12.5 101t12.5 101t37.5 95v0zM315 96l50 91q69 -37 147 -37t147 37l50 -91q-46 -25 -96 -37.5t-101 -12.5t-101 12.5t-96 37.5v0
z" />
    <glyph glyph-name="uniE9CB" unicode="&#xe9cb;" 
d="M368 -9q30 -19 65.5 -31t78.5 -11q43 -1 78.5 11t65.5 31l-1 111h-286l-1 -111v0zM650 154q0 83 37 144t79.5 117t76 116.5t26.5 143.5q-4 53 -25 106t-63.5 95.5t-108.5 69.5t-160 27t-160 -27t-108.5 -69.5t-63.5 -95.5t-25 -106q-7 -83 26.5 -143.5t76 -116.5
t79.5 -117t37 -144h276v0zM256 666q4 49 23.5 87.5t53 64.5t79 39t100.5 13t99.5 -13t76.5 -38.5t50.5 -63.5t22.5 -88q4 -54 -23 -97.5t-70 -103.5q-31 -44 -59.5 -93t-45.5 -117h-102q-17 68 -45.5 117t-59.5 93q-43 60 -73.5 102.5t-26.5 97.5v0z" />
    <glyph glyph-name="uniE9CC" unicode="&#xe9cc;" 
d="M512 625q-68 0 -116 -48t-48 -116t48 -116t116 -48t116 48t48 116t-48 116t-116 48v0zM512 356q-44 0 -74.5 30.5t-30.5 74.5q0 43 30.5 74t74.5 31q43 0 74 -31t31 -74q0 -44 -31 -74.5t-74 -30.5v0zM768 717q-12 12 -31 10t-34 -17t-17 -34.5t10 -31.5t31 -9.5t34 17.5
t17 34t-10 31v0zM263 270q-15 -15 -17 -34t10 -31t31 -10t34 17t17 34t-10 31t-31 10t-34 -17v0zM256 717q-12 -12 -10 -31t17 -34t34 -17.5t31 9.5t10 31.5t-17 34.5t-34 17t-31 -10v0zM703 212q15 -15 34 -17t31 10t10 31t-17 34t-34 17t-31 -10t-10 -31t17 -34v0z
M512 717q17 0 29 15t12 36t-12 36t-29 15t-29 -15t-12 -36t12 -36t29 -15v0zM512 102q17 0 29 15t12 37q0 21 -12 36t-29 15t-29 -15t-12 -36q0 -22 12 -37t29 -15v0zM256 461q0 17 -15 29t-36 12q-22 0 -36.5 -12t-14.5 -29t14.5 -29t36.5 -12q21 0 36 12t15 29v0zM870 461
q0 17 -15 29t-36 12t-36 -12t-15 -29t15 -29t36 -12t36 12t15 29v0z" />
    <glyph glyph-name="uniE9CD" unicode="&#xe9cd;" 
d="M973 502h-25h-25q-22 0 -37 -12t-15 -29t15 -29t37 -12h25h25q21 0 36 12t15 29t-15 29t-36 12v0zM512 742q-59 0 -110 -22t-89.5 -60t-60.5 -89.5t-22 -109.5q0 -59 22 -110t60.5 -89.5t89.5 -60.5t110 -22t110 22t89.5 60.5t60.5 89.5t22 110q0 58 -22 109.5
t-60.5 89.5t-89.5 60t-110 22v0zM512 256q-42 0 -79.5 16t-65.5 44t-44 65t-16 80q0 42 16 79.5t44 65t65.5 44t79.5 16.5t79.5 -16.5t65.5 -44t44 -65t16 -79.5q0 -43 -16 -80t-44 -65t-65.5 -44t-79.5 -16v0zM154 461q0 17 -15 29t-37 12h-25.5h-25.5q-21 0 -36 -12
t-15 -29t15 -29t36 -12h25.5h25.5q22 0 37 12t15 29v0zM512 819q17 0 29 15t12 36v26v26q0 21 -12 36t-29 15t-29 -15t-12 -36v-26v-26q0 -21 12 -36t29 -15v0zM512 102q-17 0 -29 -15t-12 -36v-25.5v-25.5q0 -21 12 -36t29 -15t29 15t12 36v25.5v25.5q0 21 -12 36t-29 15v0
zM889 780q15 15 17 34t-10 31t-31 10t-34 -17q-4 -4 -17.5 -18t-18.5 -18q-15 -15 -17 -34t10 -31t31 -10t34 17l18 18l18 18v0zM171 178q-4 -5 -18 -18.5t-18 -17.5q-15 -15 -17 -34t10 -31t31 -10t34 17l17.5 17.5l18.5 18.5q15 15 17 34t-10 31t-31 9.5t-34 -16.5v0z
M193 838q-15 15 -34 17t-31 -10t-10 -31t17 -34l18 -18l18 -18q15 -15 34 -17t31 10t10 31t-17 34q-5 4 -18.5 18t-17.5 18v0zM795 120q4 -5 18 -18.5t18 -17.5q15 -15 34 -17.5t31 9.5t10 31.5t-17 34.5q-4 4 -18 17.5t-18 17.5q-15 15 -34 17.5t-31 -9.5t-10 -31t17 -34v0
z" />
    <glyph glyph-name="uniE9CE" unicode="&#xe9ce;" 
d="M35 393l70 -18l53 83l-100 25q-19 4 -35.5 -6t-21.5 -28q-4 -19 6 -35.5t28 -20.5v0zM946 379l-228 -205l-269 208q-4 3 -8.5 5t-8.5 3l-36 9l-53 -83l57 -14l291 -225q7 -5 14.5 -7.5t14.5 -2.5q8 0 16.5 3t14.5 9l258 232q14 12 15 31.5t-12 33.5t-32 15t-34 -12v0z
M445 605l250 -160q16 -10 34.5 -6.5t28.5 19.5l258 370q11 16 7.5 35t-19.5 30t-35 7.5t-30 -19.5l-232 -334l-251 161q-8 5 -17.5 7t-18.5 0t-16.5 -7.5t-12.5 -13.5l-384 -602q-10 -17 -6 -35.5t21 -28.5q5 -4 11.5 -6t12.5 -2q12 0 22.5 6t17.5 16l359 563v0z" />
    <glyph glyph-name="uniE9CF" unicode="&#xe9cf;" 
d="M402 221l-41 -42q-27 -26 -65 -26t-65 26q-13 13 -20 29.5t-7 35.5q0 18 7 34.5t20 29.5l152 151q24 23 63 45t72 -11q15 -14 36 -14t35 15q15 15 15 36t-15 36q-55 54 -130.5 45t-146.5 -80l-153 -151q-27 -28 -42 -63t-15 -73q0 -39 15 -74t42 -63q28 -28 64 -42
t73 -14t72.5 14t63.5 42l42 42q15 14 15 35t-15 36t-36 15t-36 -14v0zM865 809q-60 59 -134 61.5t-129 -51.5l-52 -52q-15 -14 -15 -35t15 -36t36 -15t36 14l51 52q29 28 62.5 21t57.5 -31q13 -13 20 -29.5t7 -35.5q0 -18 -7 -34.5t-20 -29.5l-162 -161q-56 -55 -85 -45.5
t-40 21.5q-15 14 -36 14t-35 -15q-15 -15 -15 -36t15 -35q25 -26 54 -38.5t60 -12.5q37 0 76 18.5t77 56.5l163 161q27 28 42 63t15 73q0 39 -15 74t-42 63v0z" />
    <glyph glyph-name="uniE9D0" unicode="&#xe9d0;" 
d="M737 512h-297q-21 0 -25.5 -15t-4.5 -36t4.5 -36t25.5 -15h297q21 0 26 15t5 36t-5 36t-26 15v0zM840 256h-400q-21 0 -25.5 -15t-4.5 -36t4.5 -36t25.5 -15h400q21 0 25.5 15t4.5 36t-4.5 36t-25.5 15v0zM440 666h400q21 0 25.5 15t4.5 36t-4.5 36t-25.5 15h-400
q-21 0 -25.5 -15t-4.5 -36t4.5 -36t25.5 -15v0zM276 512h-92q-21 0 -25.5 -15t-4.5 -36t4.5 -36t25.5 -15h92q22 0 26.5 15t4.5 36t-4.5 36t-26.5 15v0zM276 256h-92q-21 0 -25.5 -15t-4.5 -36t4.5 -36t25.5 -15h92q22 0 26.5 15t4.5 36t-4.5 36t-26.5 15v0zM276 768h-92
q-21 0 -25.5 -15t-4.5 -36t4.5 -36t25.5 -15h92q22 0 26.5 15t4.5 36t-4.5 36t-26.5 15v0z" />
    <glyph glyph-name="uniE9D1" unicode="&#xe9d1;" 
d="M512 870q-53 0 -99.5 -20t-81.5 -54.5t-55 -81.5t-20 -100q0 -91 40 -190.5t88 -182t88 -136.5l40 -54l40 54t88 136.5t88 182t40 190.5q0 53 -20 100t-55 81.5t-81.5 54.5t-99.5 20v0zM512 473q-57 0 -97.5 40.5t-40.5 97.5q0 58 40.5 98.5t97.5 40.5t97.5 -40.5
t40.5 -98.5q0 -57 -40.5 -97.5t-97.5 -40.5v0z" />
    <glyph glyph-name="uniE9D2" unicode="&#xe9d2;" 
d="M992 46l-70 210h-77l42 -205h-750l42 205h-77l-70 -210q-13 -40 7.5 -68.5t62.5 -28.5h820q42 0 62.5 28.5t7.5 68.5v0zM768 717q0 53 -20 99.5t-55 81.5t-81.5 55t-99.5 20t-99.5 -20t-81.5 -55t-55 -81.5t-20 -99.5q0 -92 40 -183.5t88 -164.5t88 -118.5l40 -45.5
l40 45.5t88 118.5t88 164.5t40 183.5v0zM374 714q0 57 40.5 97.5t97.5 40.5t97.5 -40.5t40.5 -97.5q0 -58 -40.5 -98.5t-97.5 -40.5t-97.5 40.5t-40.5 98.5v0z" />
    <glyph glyph-name="uniE9D3" unicode="&#xe9d3;" 
d="M809 563h-92v123q0 56 -13 99.5t-38.5 74t-64 46.5t-89.5 16t-89.5 -16t-64 -46.5t-38.5 -74t-13 -99.5v-20h103v41q0 55 28 83.5t74 28.5t74 -28.5t28 -83.5v-144h-409q-21 0 -36 -20t-15 -41v-400q0 -21 14 -40.5t34 -26.5l62 -19q20 -7 49 -11.5t51 -4.5h296
q22 0 51 4.5t49 11.5l62 20q20 6 34 25.5t14 40.5v400q0 21 -20 41t-41 20v0z" />
    <glyph glyph-name="uniE9D4" unicode="&#xe9d4;" 
d="M809 563h-92v123q0 56 -13 99.5t-38.5 74t-64 46.5t-89.5 16t-89.5 -16t-64 -46.5t-38.5 -74t-13 -99.5v-123h-102q-21 0 -36 -20t-15 -41v-400q0 -21 14 -40.5t34 -26.5l62 -19q20 -7 49 -11.5t51 -4.5h296q22 0 51 4.5t49 11.5l62 20q20 6 34 25.5t14 40.5v400
q0 21 -20 41t-41 20v0zM614 563h-204v144q0 55 28 83.5t74 28.5t74 -28.5t28 -83.5v-144v0z" />
    <glyph glyph-name="uniE9D5" unicode="&#xe9d5;" 
d="M973 461l-307 256v-154h-359v-205h359v-153l307 256v0zM154 819h409v103h-409q-43 0 -73 -30.5t-30 -72.5v-717q0 -42 30 -72t73 -30h409v102h-409v717v0z" />
    <glyph glyph-name="uniE9D6" unicode="&#xe9d6;" 
d="M717 461l-307 256v-154h-359v-205h359v-153l307 256v0zM870 102h-409v-102h409q43 0 73 30t30 72v717q0 42 -30 72.5t-73 30.5h-409v-103h409v-717v0z" />
    <glyph glyph-name="uniE9D7" unicode="&#xe9d7;" 
d="M1024 614v-358q0 -42 -30 -72t-72 -30h-820q-42 0 -72 30t-30 72v358q0 43 30 73t72 30h359v102l205 -179l-205 -179v102h-307v-256h716v256h-153v154h205q42 0 72 -30t30 -73v0z" />
    <glyph glyph-name="uniE9D8" unicode="&#xe9d8;" 
d="M623 58q-1 -11 7 -20.5t21 -10.5l204 -17q12 -1 22 7t11 20l16 168l-265 22l-16 -169v0zM120 205l16 -168q1 -12 11 -20t22 -7l204 17q13 1 21 10t7 21l-16 169l-265 -22v0zM94 482l16 -173l265 21l-16 174q0 3 -0.5 6t-0.5 7q0 59 45 101.5t109 42.5t109 -42.5
t45 -101.5q0 -4 -0.5 -7t-0.5 -6l-16 -174l265 -21l16 173q1 9 1.5 17.5t0.5 17.5q0 81 -33 153t-90 125.5t-133.5 84.5t-163.5 31t-163.5 -31t-133.5 -84.5t-90 -125.5t-33 -153q0 -9 0.5 -17.5t1.5 -17.5v0z" />
    </font>
</defs>
</svg>
